<?xml version="1.0" encoding="utf-8"?>
<!-- Generator: Adobe Illustrator 26.2.1, SVG Export Plug-In . SVG Version: 6.00 Build 0)  -->
<svg version="1.1" id="Layer_1" xmlns="http://www.w3.org/2000/svg" xmlns:xlink="http://www.w3.org/1999/xlink" x="0px" y="0px"
	 viewBox="0 0 182.18 219.05" style="enable-background:new 0 0 182.18 219.05;" xml:space="preserve">
<style type="text/css">
	.st0{fill:#8f8f8f;}
	.st8{fill:#000000;}
</style>
<g>
	<path class="st0" d="M89.1,92.66l-0.11,3.03c-0.21,5.81-0.43,11.82-1.01,17.74c-0.71,7.13-1.67,13.27-2.95,18.79
		c-2.12,9.13-5.47,17.37-9.97,24.48c-0.35,0.56-0.79,1.24-1.47,1.84l-0.17,0.15c-5.05,4.42-10.27,8.98-17.43,10.94
		c-2.69,0.74-5.54,1.1-8.62,1.1c-1.67,0-3.41-0.11-5.22-0.32c-4.69-0.55-9.02-2.2-13.01-3.88c-4.46-1.89-7.32-5.43-9.61-8.28
		c-3.37-4.18-5.76-8.81-7.64-12.78c-2.53-5.32-4-11-5.18-15.91c-2.44-10.15-3.6-18.7-3.67-26.91c-0.01-2.02-0.01-4.04-0.01-6.06
		l0-2.76C2.86,84.87,3.36,75.5,4.51,65.98c0.16-1.35,0.32-2.7,0.47-4.06c0.54-4.82,1.1-9.8,2.23-14.73
		c1.06-4.65,2.22-8.38,3.65-11.75c3.38-7.96,7.37-16.29,13.65-23.23c3.83-4.23,8.65-8.81,15.36-10.64
		C51.09-1.5,61.12-0.07,69.68,5.82c2.98,2.05,5.43,4.65,7.26,7.7c4.54,7.57,7.01,14.19,7.77,20.83l0.62,5.29
		c0.39,3.28,0.77,6.57,1.12,9.86c0.2,1.91,0.21,4.1-1.21,5.78c-1.4,1.65-3.49,1.99-5.16,2.09c-3.79,0.24-7.68,0.42-11.87,0.56
		c-3.68,0.14-5.5-1.49-5.94-5.22c-0.25-2.14-0.49-4.27-0.73-6.41c-0.34-3.06-0.68-6.12-1.07-9.17c-0.29-2.32-0.66-4.15-1.14-5.75
		c-0.52-1.73-1.26-2.94-2.33-3.8c-2.7-2.17-5.12-2.52-8.36-1.23c-4.53,1.81-7.73,5.25-10.07,10.84c-1.54,3.68-2.62,7.73-3.67,11.65
		c-1.21,4.54-2.15,9.03-2.92,12.83c-1.96,9.76-2.62,18.92-2.01,28.02c0.44,6.68,0.72,12.17,0.87,17.27
		c0.02,0.54,0.02,1.09,0.03,1.63c0.03,2.21,0.06,4.3,0.7,6.17c0.64,1.89,0.69,3.75,0.74,5.38c0.03,1.13,0.06,2.19,0.27,3.14
		c1.01,4.48,2.83,8.73,4.58,12.84c1.07,2.51,2.82,4.69,5.07,6.3c3.7,2.67,6.61,3.15,9.71,1.63c1.09-0.54,1.92-1.46,2.84-2.68
		c2.93-3.9,4.63-8.81,5.36-15.44c0.83-7.57,1.56-15.3,2.27-22.77c0.28-2.98,0.56-5.96,0.85-8.94c0.47-4.83,2.75-7.24,7.39-7.83
		c0.9-0.12,1.76-0.12,2.52-0.12c0.38,0,0.77,0,1.15-0.02l1.54-0.07c1.91-0.09,3.82-0.18,5.72-0.32c1.99-0.15,4.23-0.09,5.85,1.46
		C89.03,88.83,89.15,90.97,89.1,92.66z"/>
</g>
<g>
	<path class="st8" d="M176.37,25.91c2.16,1.48,2.97,4.28,1.95,6.68c-0.3,0.71-25.65,60.39-38.88,95.86
		c2.38-0.24,4.77-0.48,7.18-0.71c3.04-0.29,5.71,1.93,6,4.96c0.29,3.02-1.93,5.71-4.96,5.99c-4.17,0.39-8.3,0.81-12.37,1.25
		c-0.63,1.83-1.2,3.52-1.68,5.05c-9.01,28.42-12.96,45.1-13,45.32c-0.7,2.86-3.66,4.62-6.61,3.96c-2.96-0.66-4.79-3.52-4.09-6.54
		c0.16-0.69,4.07-17.19,13.23-46.06c0.04-0.11,0.07-0.23,0.11-0.34c-14.23,1.72-27.53,3.64-39.21,5.49
		c-23.63,32.78-45.73,61.05-64.13,72.12c-0.88,0.66-1.76,0.88-2.86,0.88c-1.76,0-3.52-0.88-4.62-2.64
		c-1.54-2.64-0.66-5.95,1.76-7.49c15.13-9.08,34.39-32.93,54.44-60.33c-18.85,3.25-30.78,5.79-31.09,5.85
		c-0.44,0.08-0.66,0.12-1.1,0.12c-2.64,0-4.84-1.76-5.29-4.34c-0.66-2.97,1.1-5.89,4.18-6.53c0.25-0.06,17.05-3.66,42.47-7.78
		c4.66-6.5,9.33-13.11,13.99-19.67l2.15-3.04c32.23-45.48,75.09-87.07,75.52-87.48C171.32,24.66,174.22,24.42,176.37,25.91
		L176.37,25.91z M127.22,129.78c7.56-20.83,20.41-52.29,29.72-74.68c-15.15,16.2-36.26,40.12-54.05,65.22l-2.15,3.04
		c-2.6,3.67-5.2,7.33-7.77,10.95C103.53,132.75,115.08,131.19,127.22,129.78L127.22,129.78z"/>
</g>
</svg>
