<svg xmlns="http://www.w3.org/2000/svg" xml:space="preserve" width="1644.2" height="1929.8" version="1.1" viewBox="0 0 16442 19298"><path d="m1496 16104-2 45a4280 4280 0 01-15 258 2070 2070 0 01-43 275 1150 1150 0 01-145 357c-5 8-12 18-22 27l-2 2a650 650 0 01-255 160 470 470 0 01-125 16 697 697 0 01-266-61 370 370 0 01-140-122c-50-60-84-128-112-186-37-78-58-160-76-232A1713 1713 0 01 240 16250v-128c-3-131 5-268 21-407l7-60c8-70 16-142 33-214a1008 1008 0 01 53-171c50-117 108-238 200-340a480 480 0 01 223-155 500 500 0 01 435 62 361 361 0 01 106 113 751 751 0 01 114 304l9 77 16 144c3 28 3 60-18 84-20 24-50 30-75 30-55 4-112 7-173 9-54 2-80-22-87-77l-10-93-16-134a514 514 0 00-17-84 107 107 0 00-34-55c-40-32-74-37-122-18-66 26-112 76-147 158-22 54-38 113-53 170a3093 3093 0 00-43 187 1535 1535 0 00-30 409 6862 6862 0 01 14 276c0 32 0 62 10 90s10 54 10 78c1 17 2 32 5 46 15 66 41 128 67 187a220 220 0 00 74 92c54 40 96 46 141 24a120 120 0 00 42-39 443 443 0 00 78-225 21543 21543 0 00 33-333l13-130c6-70 40-106 108-114 13-2 25-2 36-2h17l23-1 83-5c30-2 62-2 85 21 24 23 26 54 25 78m1120-1703a380 380 0 00-46-3 247 247 0 00-197 90 908 908 0 00-180 311c-36 108-55 220-73 330-8 47-10 88-9 125 9 145 18 276 50 403a1925 1925 0 00 80 239 280 280 0 00 167 157c50 20 97 20 140 1 56-25 100-60 129-104a901 901 0 00 143-353l10-44c31-141 56-260 54-386a7208 7208 0 01 0-50 1080 1080 0 00-40-325c-10-47-21-90-40-132-22-52-46-107-72-161a248 248 0 00-83-87 75 75 0 00-32-11zm657 920c3 74-15 183-33 298l-2 13c-19 112-60 218-94 297-55 130-142 247-283 379a492 492 0 01-320 131l-56 2c-58 0-109-6-157-17a376 376 0 01-159-74 675 675 0 00-34-25c-26-20-53-40-76-66a1175 1175 0 01-213-337c-41-103-60-210-80-313a1583 1583 0 01-15-470 2124 2124 0 01 117-489c35-97 87-184 147-280a836 836 0 01 177-204 580 580 0 01 280-125 666 666 0 01 338 40 305 305 0 01 67 34 632 632 0 01 223 228 1302 1302 0 01 131 368c34 178 46 360 42 610M4250 18070c-84-21-76-92-73-115 13-112 10-229 7-342v-10c-2-74 0-150 0-223l2-50v-32h-31a12810 12810 0 01-460 0v16c3 30 8 60 14 91l6 40 5 23 8 51a95 95 0 01-66 102l-5 1c-15 6-33 12-53 14l-118 10-33 2c-45 3-78-24-82-68a353 353 0 01-2-66c5-60-2-121-10-185l-4-34a2170 2170 0 00-224-10h-144c-110 0-220 3-325 11h-46l-10-2a2040 2040 0 00-400 3c-25 3-47 3-66-2-34-9-80-28-80-96v-3l3-120v-88a79 79 0 01 68-78 244 244 0 01 70-3c146 15 297 15 430 14l258 1 223 1c42 0 86-1 128-3l115-3h360a43365 43365 0 01 416 5c62 0 123 3 185 4l90 3 30 1c50 6 77 32 82 80a1954 1954 0 01 14 242c0 42 0 83 3 122a300 300 0 01 0 67v43l3 69a3106 3106 0 01-1 428 110 110 0 01-101 109c-64 8-125-5-186-20m-1585-404c44-1 75 23 81 65 0 7 2 13 4 20 4 18 8 38 6 60-6 81-5 164-4 244v111a1257 1257 0 00 8 108l4 46 2 14c1 10 3 20 3 32l1 260v83c-7 50-37 80-88 90a310 310 0 01-50 3h-66c-84 2-171 4-258 1-53-1-108 1-162 4l-100 4h-188l-12-1H1820a2790 2790 0 01-343 16h-41a66574 66574 0 00-698 9l-140 2-161 2h-25c-14 0-29 0-45-3-68-13-90-39-94-107-10-160-19-330-30-538a2490 2490 0 01 5-370c3-54 30-86 83-95a510 510 0 01 180 4 77 77 0 01 64 81 4064 4064 0 00-1 81c0 44 0 90-3 135-5 104 2 210 9 313v10l3 34c1 27 3 53 6 78v2h2c17 3 35 4 51 4a32166 32166 0 00 520 0l-1-38a27356 27356 0 00-10-130c-5-50-10-100-13-149a432 432 0 01-1-80 94 94 0 01 90-90c51-5 104-8 162-10 50 0 88 31 95 80v4c4 23 8 47 10 71l10 213 3 80c2 16 5 32 8 40h343l488-30c20 0 40-1 59-3v-103l-7-274-8-270c0-24-3-100 93-107 43-3 87-4 129-5l52-1m4015-583 1-44c3-85 7-173 15-259 10-104 24-194 43-274a1140 1140 0 01 146-357c5-8 11-18 20-27l4-2a650 650 0 01 254-160 470 470 0 01 126-16 699 699 0 01 266 61 370 370 0 01 140 121c50 61 84 129 111 187a1140 1140 0 01 76 232c36 148 53 272 54 392v130c2 130-5 266-22 405l-7 60c-8 70-16 143-32 214a1008 1008 0 01-54 172c-50 116-107 238-199 339a480 480 0 01-224 155 501 501 0 01-435-62 360 360 0 01-106-112 750 750 0 01-113-304l-10-77-16-144c-3-28-3-60 18-85 20-24 50-29 75-30 56-4 112-6 174-8 53-2 80 21 86 76a11165 11165 0 01 26 227c5 34 10 60 17 84a107 107 0 00 34 56c40 31 75 37 122 18a268 268 0 00 147-158 1300 1300 0 00 54-170 3110 3110 0 00 42-188 1535 1535 0 00 30-408 6844 6844 0 01-14-276c0-33 0-63-10-90a260 260 0 01-10-79c-1-16-2-32-5-46-14-65-41-127-67-187a219 219 0 00-73-92c-55-39-97-46-142-24a120 120 0 00-42 40 443 443 0 00-78 225c-12 110-23 223-33 332l-12 130c-7 70-40 106-108 115l-37 2h-39l-84 6c-29 2-61 1-85-22-23-22-25-53-24-78m-1122 1704 47 3a250 250 0 00 198-90 910 910 0 00 180-312c35-107 54-220 72-329 8-48 11-89 10-125-10-146-19-277-51-404a1925 1925 0 00-80-238c-30-74-85-127-166-158-50-20-98-20-140 0a290 290 0 00-130 104 1329 1329 0 00-80 145c-31 64-46 134-62 208l-10 43a1640 1640 0 00-55 386v50a1080 1080 0 00 40 326 790 790 0 00 40 132 4370 4370 0 00 72 160 240 240 0 00 83 87 75 75 0 00 32 12zm-656-920c-3-74 15-183 34-298l2-14c18-112 60-217 93-296 56-130 143-247 283-380a490 490 0 01 321-130c20-2 37-2 55-2 58 0 109 5 157 16a375 375 0 01 160 74c10 10 22 18 33 26 26 19 54 39 77 66 103 120 168 224 213 336 40 104 60 210 80 313a1583 1583 0 01 15 470 2125 2125 0 01-117 490 1570 1570 0 01-147 279 838 838 0 01-177 204 567 567 0 01-280 125 667 667 0 01-338-40 305 305 0 01-68-33 634 634 0 01-222-229 1304 1304 0 01-132-368c-34-177-46-360-42-609m-976-2750c84 22 76 92 73 115-13 113-10 230-7 342v10c2 75 0 150 0 224l-1 50v32h30a13182 13182 0 01 460-1v-16c-2-30-8-60-13-90l-7-40-5-24-8-50a95 95 0 01 66-102l5-2c16-5 33-12 53-14l118-10 33-2c45-3 78 24 83 68 1 18 3 42 1 66-5 61 2 122 10 186l4 34a2244 2244 0 00 225 10h143c110 0 220-3 325-12l46 1 10 1c150 10 274 15 400-2a160 160 0 01 66 2c34 8 80 27 80 95v4c-2 40-2 79-2 119l-2 88a79 79 0 01-67 78c-25 5-48 6-70 4a3725 3725 0 00-430-14c-86 0-172 0-258-2h-223c-42 0-86 0-128 2l-115 4h-360a43385 43385 0 01-600-10l-92-2c-10 0-20 0-30-2-49-5-76-31-80-80a1814 1814 0 01-14-241c0-43 0-83-4-123-2-24-1-46 0-67v-42l-3-70c-3-54-6-111-6-168a5273 5273 0 01 7-260c3-60 40-100 101-108 65-9 125 4 186 20m1585 404c-43 0-74-24-80-66l-5-20a208 208 0 01-6-60c6-80 5-163 4-244v-110c-1-36-4-70-7-108l-4-46-2-15c-2-9-4-20-4-31l-1-260v-83c8-51 37-81 88-90a310 310 0 01 50-4h66c84-2 172-3 258 0 53 0 109-2 162-4 34-2 67-4 100-4 44-1 87 0 128 0h97c115-14 231-15 343-16h42a73970 73970 0 00 697-8l140-3 162-1h25c13 0 28 0 44 3 68 13 90 38 94 107 10 160 20 330 30 537a2582 2582 0 01-4 370c-4 55-30 86-84 95a510 510 0 01-180-3c-40-7-65-40-63-82v-80c0-45 0-90 3-136 5-104-2-210-8-313l-1-10-2-33c-2-27-3-53-6-79v-1h-3a379 379 0 00-51-5 32195 32195 0 00-520 0 405 405 0 00 2 38l10 130 13 150c2 23 4 50 0 79-5 53-38 86-90 90a2023 2023 0 01-161 10 90 90 0 01-96-80v-4a697 697 0 01-9-70l-10-214-3-80-8-40h-344l-488 30c-20 0-40 2-59 4v102l8 275 7 270c0 24 3 100-93 107-43 3-86 4-128 5H5510M137 11924c21-84 91-76 114-73 113 13 230 10 342 7h10c75-2 150 0 224 0l50 1h32v-30a13048 13048 0 01 0-441l-1-20-16 1c-30 2-60 8-90 13l-40 7-24 5-50 8a95 95 0 01-102-66l-2-5c-5-16-11-33-13-53l-10-118-2-34c-4-44 24-77 68-82 18-2 41-3 65-1 61 5 122-2 186-10l34-4c8-77 10-153 10-225V10660c0-110-3-220-11-325-2-17 0-32 0-46l1-10c10-150 15-274-2-400-4-25-3-47 2-67 8-34 28-78 96-78h3l119 1 88 2a79 79 0 01 79 67c4 25 5 48 3 70a3860 3860 0 00-14 430l-1 258-2 223c0 42 2 86 4 128a4000 4000 0 01 3 115v360a39460 39460 0 01-10 600l-2 92-1 30c-6 49-32 75-80 80a1814 1814 0 01-242 14c-43 0-83 0-123 4-23 2-45 1-66 0a495 495 0 00-43 0l-70 3c-54 2-111 5-168 6-90 0-180-4-259-7a110 110 0 01-110-101c-7-65 6-125 21-186M4603 12970l44 2c85 3 173 6 259 15 104 10 194 24 274 43 133 30 253 80 357 145 8 6 18 12 27 22l2 2a650 650 0 01 160 255c10 39 16 80 16 125a653 653 0 01-5 77 695 695 0 01-56 190 370 370 0 01-121 140 908 908 0 01-187 111 1180 1180 0 01-232 76 1721 1721 0 01-392 53h-130c-130 3-266-5-405-21l-60-7c-70-8-143-16-214-33a1007 1007 0 01-172-53c-116-50-237-107-339-200a480 480 0 01-155-223 502 502 0 01 62-435 361 361 0 01 112-106 750 750 0 01 304-113l77-10 144-16c28-3 60-3 85 18 24 20 29 50 30 75 4 55 6 112 8 173 3 54-21 80-76 87l-93 10-134 16a522 522 0 00-84 17 107 107 0 00-56 34c-31 40-36 75-18 122a268 268 0 00 158 147 2830 2830 0 00 358 96c142 29 276 38 409 30a6834 6834 0 01 275-14c33 0 63 0 90-10 28-10 55-10 79-10 16-1 32-2 46-5 65-15 127-41 187-67a220 220 0 00 92-74c39-54 46-96 24-141-8-16-22-28-40-42a444 444 0 00-225-78c-110-12-223-23-332-33l-130-13c-70-6-106-40-115-108l-1-36v-17l-2-23a3500 3500 0 00-5-83c-2-29 0-62 22-85 22-24 53-25 78-25m-2077-1094a388 388 0 00-3 47c0 80 29 144 90 197a910 910 0 00 311 180c108 36 220 54 330 73 47 8 88 10 125 8 146-8 276-17 403-50a1915 1915 0 00 239-80 280 280 0 00 158-166c19-50 20-97 0-140a290 290 0 00-104-130 1332 1332 0 00-145-80 901 901 0 00-208-62l-43-10c-142-31-260-56-386-54h-51a1080 1080 0 00-325 40c-47 10-90 20-132 39a4401 4401 0 00-161 73 248 248 0 00-87 82 76 76 0 00-11 33zm920-656a1760 1760 0 01 298 33l13 2a1146 1146 0 01 677 376c80 86 124 194 130 322a1097 1097 0 01 2 54c0 58-5 110-17 158a375 375 0 01-74 159l-25 33c-20 27-39 54-66 77a1173 1173 0 01-336 213c-104 40-210 60-313 80a1584 1584 0 01-470 15 2125 2125 0 01-490-117 1640 1640 0 01-280-147 840 840 0 01-204-177 567 567 0 01-124-280 669 669 0 01 39-338 308 308 0 01 34-67 632 632 0 01 229-223 1301 1301 0 01 367-131 2830 2830 0 01 610-42m2867-1147c-21 84-92 76-115 73-112-13-229-10-342-7h-10c-74 2-150 0-223 0l-50-1H5540v30a12832 12832 0 01 0 460h16c30-2 60-8 92-13l39-7a438 438 0 01 74-12 95 95 0 01 102 65l1 5c6 15 12 33 14 53l10 118 2 33c3 45-24 78-68 82a354 354 0 01-66 2c-60-5-121 2-185 10l-34 4a2330 2330 0 00-10 323v45c0 110 3 220 11 325v46l-2 10a2040 2040 0 00 3 400c3 25 3 47-2 66-9 34-28 80-96 80h-3l-120-3H5230a79 79 0 01-78-68 240 240 0 01-3-70c15-146 15-297 14-430l1-258 2-223c0-42-2-86-4-128a20041 20041 0 01-3-475 39440 39440 0 01 10-600l2-92 1-30c6-50 32-76 80-81a2528 2528 0 01 242-13c42 0 83 0 122-4 24-3 46-1 67 0a495 495 0 00 43 0l69-3a3106 3106 0 01 428 1c60 3 100 40 109 101 8 65-5 125-20 186m-85 1095c-2-44 23-75 65-81l20-4c18-4 38-8 60-7 80 7 164 6 244 4h111c35 0 70-3 108-7l46-4 14-2c10-1 20-3 31-3l260-2h61l23 1c50 7 80 37 90 88a316 316 0 01 3 50v66c2 84 4 171 1 258-1 53 1 108 4 162l4 100v188l-1 12v24c15 116 15 232 16 344v41l5 516c0 60 2 120 4 181l2 140 2 162v25c0 14 0 29-3 44-13 69-39 90-107 95-160 10-330 19-538 30a2683 2683 0 01-370-5c-54-3-86-30-95-83a500 500 0 01 4-180c7-40 40-65 81-64h80l136 3c104 6 210-1 313-8h10l33-3c28-1 54-3 80-6l1-2c3-18 4-35 4-52a32166 32166 0 00 0-520 400 400 0 00-38 2l-130 10c-50 5-100 10-149 13-24 2-51 4-80 1-52-6-85-39-90-90s-8-104-10-162c0-50 31-88 80-95l4-1a550 550 0 01 71-8l213-10 80-4a490 490 0 00 40-8v-344l-30-488c0-20-1-40-3-58h-103l-274 7-270 8c-24 0-100 2-107-93-3-43-4-87-5-129l-1-52m-1995-1480c43-1 74 24 80 66l5 20a207 207 0 01 6 60c-6 80-5 163-4 244v110c0 36 4 70 7 108l4 46 2 15c2 10 4 20 4 31v260l1 56v5l-1 22c-7 51-36 81-87 90a318 318 0 01-50 4h-66c-85 2-172 3-258 0-54 0-109 2-162 4-34 2-67 4-101 4h-224c-115 14-231 15-344 16h-40a73970 73970 0 00-698 8l-140 3-162 1H1980c-13 0-28 0-44-3-68-13-90-38-94-107-10-160-20-330-30-537a2585 2585 0 01-4-167c1-73 5-143 8-203 3-55 30-86 84-95 55-10 114-9 179 3 40 7 65 40 64 82a4083 4083 0 00 0 80c0 45 0 90-3 136-5 104 2 210 8 313l1 10 2 33c2 27 3 53 6 79v1h2c18 3 35 5 52 5a32166 32166 0 00 514 0h6c0-13 0-26-2-38a28475 28475 0 00-10-130l-13-149c-2-24-4-52 0-80 5-53 38-86 90-90 50-6 103-9 161-10 50 0 88 30 96 80v4c4 23 8 46 9 70l10 214 3 80 8 40h344l488-30c20 0 40-2 59-4v-102l-8-275-7-269c-1-25-3-100 93-108 43-3 86-4 128-5h53M105 13925c-43 1-74-24-80-65l-4-20a208 208 0 01-7-60c6-81 5-164 4-244v-111a1257 1257 0 00-7-108l-4-46-2-14-4-32v-260L0 12910v-5l1-23c7-50 36-80 87-90a310 310 0 01 50-3l66-1c85-2 172-3 258 0 54 1 109-2 162-4a3637 3637 0 01 228-4h60l13 1h24c115-15 231-16 344-16h40a73970 73970 0 00 698-9l140-3h187c14 0 28 0 44 2 68 13 90 38 95 107l29 537a2588 2588 0 01-4 370c-3 55-30 87-83 96a513 513 0 01-180-4c-40-7-65-40-64-81v-81c0-44 0-90 3-135 6-104-1-210-8-313v-10c-2-11-2-23-3-34-2-27-3-53-6-79l-2-1a410 410 0 00-52-4 45124 45124 0 00-514-1h-5v39l11 130 13 148c2 25 4 52 0 80-5 53-38 86-90 91-50 5-103 8-160 10a90 90 0 01-97-80v-4a703 703 0 01-9-71l-10-213-3-81-8-40h-32l-238 1h-74l-488 30c-20 0-40 1-58 3-2 36-2 70 0 103a131165 131165 0 00 7 274l7 270c0 24 3 100-92 107-44 3-87 4-130 5l-52 1m1390-7510-1 44a4280 4280 0 01-15 260c-10 103-24 193-43 273a1130 1130 0 01-145 357c-5 8-12 19-22 27l-2 2a650 650 0 01-255 160 476 476 0 01-201 12 702 702 0 01-190-57c-65-28-107-80-140-121a910 910 0 01-112-186c-37-78-58-160-76-233a1712 1712 0 01-53-392v-129c-3-130 5-267 21-406a6552 6552 0 00 7-60c8-70 16-143 33-214a1008 1008 0 01 53-172 1200 1200 0 01 200-339 480 480 0 01 223-155 500 500 0 01 435 62 363 363 0 01 106 112 752 752 0 01 114 304l9 77 16 144c3 28 3 60-18 85-20 24-50 29-75 30-55 4-112 6-173 8-54 3-80-21-87-76l-10-93-16-134a514 514 0 00-17-84 107 107 0 00-34-56c-40-31-74-36-122-18-66 27-112 77-147 158-22 54-38 113-53 170a3116 3116 0 00-43 188 1535 1535 0 00-30 409c7 97 11 177 14 252v23c0 33 0 63 10 90 10 28 10 55 10 79 1 16 2 32 5 46 15 65 41 127 67 187a220 220 0 00 74 92c54 39 96 46 141 24a120 120 0 00 42-40 443 443 0 00 78-225c12-110 23-223 33-332l13-130c6-70 40-106 108-115l36-1h17l23-2c27-1 55-2 83-5 30-2 62 0 85 22 24 22 26 53 25 78m1120-1704a380 380 0 00-46-3 247 247 0 00-197 90 910 910 0 00-180 312c-36 107-55 220-73 329-8 48-10 89-9 125 9 146 18 277 50 404a1917 1917 0 00 80 238c30 74 86 127 167 158 50 20 97 20 140 0a290 290 0 00 129-104 1332 1332 0 00 80-145A902 902 0 00 2820 5910a4607 4607 0 01 10-44c31-142 56-260 54-386a7208 7208 0 01 0-50 1060 1060 0 00-26-272l-13-54c-12-46-22-90-40-131-23-52-47-108-73-162a250 250 0 00-83-86 75 75 0 00-32-12zm657 920c3 74-15 183-33 299l-2 13a1350 1350 0 01-94 297c-55 130-142 246-283 378a490 490 0 01-320 132 1097 1097 0 01-56 2 680 680 0 01-157-17 376 376 0 01-159-74c-10-10-22-17-34-26-26-19-53-38-76-66a1174 1174 0 01-213-336c-41-103-60-210-80-313a1583 1583 0 01-15-470 2124 2124 0 01 117-490c35-96 87-183 147-279a838 838 0 01 177-204c78-66 170-107 280-125a666 666 0 01 338 40 305 305 0 01 67 33 632 632 0 01 223 230 1303 1303 0 01 131 367 2890 2890 0 01 42 610M4250 8380c-84-20-76-90-73-114 13-113 10-230 8-342v-10c-3-75-1-150 0-224v-80h-30a13190 13190 0 01-460 1v16c3 30 8 60 14 91l7 40c0 7 2 15 4 23 3 16 7 33 8 50a95 95 0 01-66 102l-4 2c-16 5-34 12-54 14l-118 10-33 2c-45 3-78-24-82-68a354 354 0 01-2-66c5-60-2-121-10-185l-4-34c-76-8-153-10-224-10h-144c-110-1-220 2-325 10-16 2-32 0-46 0h-10c-150-10-273-16-400 2-25 3-47 2-66-2-34-9-80-28-80-96v-4l3-118v-90a79 79 0 01 68-77c25-5 48-6 70-4 146 16 297 15 430 15h258l223 2 128-3 116-4h359l416 5 185 5 91 2c10 0 20 0 30 2 50 5 76 31 81 80 7 57 10 110 13 160v81c0 43 0 83 4 123a300 300 0 01 0 67v42l3 70a3070 3070 0 01-1 428c-2 60-40 100-101 108-64 9-125-4-186-20m-1585-404c44 0 75 24 81 66 0 6 2 13 4 20 4 18 8 38 6 60-6 80-5 164-4 244v110a1317 1317 0 00 12 154l2 15c1 10 3 20 3 31l1 260v83c-7 51-37 81-88 90a316 316 0 01-50 4h-66c-84 2-171 3-258 0-53 0-108 2-162 5l-100 3c-43 1-86 0-128 0H1820c-115 15-230 15-343 16h-41a73970 73970 0 00-698 8l-140 3-161 1h-25c-14 0-29 0-45-3-68-13-90-38-94-107-10-160-19-330-30-537-3-66-4-119-3-167a4530 4530 0 01 8-203c3-55 30-86 83-95 56-10 114-8 180 3 40 8 65 40 64 82l-1 80c0 45 0 90-3 136-5 104 2 210 9 313v10l3 33c1 27 3 53 6 80h2c17 3 35 5 51 5a45012 45012 0 00 520 0l-1-38a27212 27212 0 00-10-130c-5-50-10-100-13-149-2-24-4-52-1-80 5-52 38-86 90-90 51-6 104-8 162-10 50 0 88 30 95 80v4c4 23 8 46 10 70l10 214 3 80a497 497 0 00 8 40h343l488-30c20 0 40-2 59-4v-102l-7-274-8-270c0-25-3-100 93-108 43-3 87-4 129-4l52-2m4015-582 1-45c3-84 7-172 15-258a2070 2070 0 01 43-275 1150 1150 0 01 146-357c5-8 11-18 20-26l4-3a650 650 0 01 254-160c40-10 80-15 126-15a653 653 0 01 76 4c68 8 131 32 190 57a370 370 0 01 140 120c50 62 84 130 111 187a1160 1160 0 01 76 232 1700 1700 0 01 54 393v129c2 130-5 267-22 406l-7 60c-8 70-16 142-32 214A1010 1010 0 01 7820 8230c-50 117-107 238-199 340a480 480 0 01-224 155 502 502 0 01-435-62 361 361 0 01-106-113 750 750 0 01-113-304l-10-77-16-144c-3-28-3-60 18-84 20-24 50-29 75-30 56-4 112-7 174-9 53-2 80 22 86 77l10 93 16 134c5 34 10 60 17 84a107 107 0 00 34 55c40 32 75 37 122 18 66-26 113-76 147-158 23-53 38-113 54-170 17-66 30-131 42-187 29-142 38-276 30-409a6844 6844 0 01-14-276c0-32 0-62-10-90a260 260 0 01-10-78c-1-17-2-32-5-46a1100 1100 0 00-67-187 220 220 0 00-73-92c-55-40-97-46-142-24-16 8-28 21-42 40a444 444 0 00-78 224l-33 333-12 130c-7 70-40 106-108 114-13 2-26 2-37 2h-17l-22 2c-28 0-56 2-84 4-29 3-61 2-85-21-23-22-25-54-24-78M5557 9098l47 3c81 0 145-29 198-90a910 910 0 00 180-311c35-107 54-220 72-329 8-48 11-89 10-126-10-145-19-276-51-403a1917 1917 0 00-80-239c-30-73-85-126-166-157-50-20-98-20-140 0-57 24-100 59-130 103a1332 1332 0 00-80 145 930 930 0 00-62 208l-10 44a1640 1640 0 00-55 386v50a1080 1080 0 00 40 325c10 47 21 91 40 132a4370 4370 0 00 72 161c18 37 52 65 83 87a76 76 0 00 32 11zm-656-920c-3-74 15-183 34-298l2-13c18-112 60-218 93-297 56-130 143-247 283-379 86-80 194-125 321-131a1081 1081 0 01 55-2c58 0 109 6 157 17a375 375 0 01 160 74c10 9 22 17 33 25 26 20 54 40 77 66 103 120 168 224 213 337 40 103 60 210 80 313a1583 1583 0 01 15 470 2126 2126 0 01-117 489c-36 97-88 184-147 280a839 839 0 01-177 204 567 567 0 01-280 125 667 667 0 01-338-40 308 308 0 01-68-34 634 634 0 01-222-228 1302 1302 0 01-132-368c-33-177-46-360-42-610M3925 5430c84 20 76 90 73 114-13 113-10 230-7 342v10c2 74 0 150 0 223l-1 50v32h30c171-2 310-3 441 0h20l-1-16c-2-30-8-60-13-91l-7-40a438 438 0 01-12-74 95 95 0 01 65-102l5-1c16-6 33-12 53-14l118-10 33-2c45-3 78 24 83 68a352 352 0 01 1 66c-5 60 2 121 10 185l4 34c77 8 153 10 225 10h143c110 0 220-3 325-10 17-2 32 0 46 0h10c150 10 273 15 400-2 25-3 47-3 66 2 34 9 80 28 80 96v3l-3 120v88a79 79 0 01-68 78 240 240 0 01-70 3 3859 3859 0 00-430-14l-258-1-223-1c-42 0-86 1-128 3a20041 20041 0 01-475 3 43385 43385 0 01-600-10l-92-2h-30c-50-7-76-33-81-80a1814 1814 0 01-13-243c0-42 0-82-4-122-3-24-1-46 0-67v-43l-3-69c-3-55-6-112-6-168a5273 5273 0 01 7-260c3-60 40-100 101-109a490 490 0 01 186 20M5510 5834c-43 2-74-23-80-65l-5-20a208 208 0 01-6-60c6-80 5-164 4-244v-111c-1-35-4-70-7-107l-4-47-2-14c-2-10-4-20-4-31l-1-260V4790c8-50 37-80 88-90a310 310 0 01 50-3h66c84-2 172-4 258-1 53 2 109-1 162-4a3179 3179 0 01 100-4h188l13 1h24c115-15 231-15 343-16h42a73970 73970 0 00 697-9l140-2 162-2h25c13 0 28 0 44 3 68 14 90 39 94 108 10 160 20 330 30 537a2582 2582 0 01-4 370c-4 55-30 86-84 95a513 513 0 01-180-3 77 77 0 01-63-82v-80c0-45 0-90 3-136 5-104-2-210-8-313l-1-10-2-33c-2-28-3-54-6-80l-3-1a401 401 0 00-51-4 32195 32195 0 00-520 0 405 405 0 00 2 38l10 130 13 149c2 24 4 52 0 80a94 94 0 01-90 90c-50 5-103 8-161 10a90 90 0 01-96-80v-4a550 550 0 01-9-71l-10-213-3-80-8-40h-344l-488 30c-20 0-40 1-59 3v103l8 274 7 270c0 24 3 100-93 107-43 4-86 4-128 5l-53 1M137 2234c21-83 91-75 114-73 113 13 230 10 342 8h10c75-2 150-1 224 0h50c10 1 22 1 32 0v-30c-3-170-3-310 0-440l-1-20h-16a823 823 0 00-90 14l-40 7-24 4c-16 4-33 7-50 8a95 95 0 01-102-66l-2-4c-5-16-11-34-13-54L560 1470l-2-33c-4-44 24-77 68-82 18-2 41-4 65-2 61 6 122-2 186-10l34-3c8-77 10-153 10-225V972c0-110-3-220-11-326-2-16 0-32 0-46l1-10c10-150 15-273-2-400a173 173 0 01 2-66C920 90 940 45 1008 45h3l119 2 88 1a79 79 0 01 79 67 244 244 0 01 3 70 3857 3857 0 00-14 431l-1 257-2 223c0 43 2 86 4 128 1 39 3 77 3 116v360a43357 43357 0 01-5 416L1280 2300l-2 91-1 30c-6 50-32 76-80 81-58 7-110 10-160 13h-82c-43 0-83 0-123 5-23 2-45 0-66 0h-43l-70 2a3670 3670 0 01-427 0 110 110 0 01-110-102c-7-64 6-124 21-186m4466 1048 44 2c85 3 173 6 259 15 104 10 194 24 274 43 133 30 253 80 357 145 8 5 18 11 27 21l2 3a650 650 0 01 160 254 475 475 0 01 11 202 695 695 0 01-56 190 370 370 0 01-121 140c-61 50-129 84-187 112a1180 1180 0 01-232 75 1721 1721 0 01-392 54H4620c-130 2-267-5-406-22l-60-6c-70-8-143-16-215-33a995 995 0 01-170-53c-117-50-239-108-340-200a480 480 0 01-155-224 501 501 0 01 62-434 360 360 0 01 112-106 751 751 0 01 304-114l77-9 144-16c28-3 60-3 85 17 24 20 29 51 30 76 4 55 6 112 8 173 2 54-21 80-76 87l-93 10-134 16a510 510 0 00-84 16 107 107 0 00-56 35c-31 39-37 74-18 121 27 67 77 113 158 148 54 22 113 38 170 53 67 18 132 31 188 43 142 28 276 38 408 29 98-7 178-10 252-13h24a290 290 0 00 90-10c28-10 55-10 79-11 16 0 32-1 46-4a1100 1100 0 00 187-67 220 220 0 00 92-74c39-54 46-96 24-142a120 120 0 00-40-41 445 445 0 00-225-78c-110-13-223-23-332-33l-130-13c-70-7-106-40-115-108l-2-37v-16l-1-23a3500 3500 0 00-5-83c-2-30-1-62 22-86 22-23 53-25 78-24M2526 2188a390 390 0 00-3 46c0 81 29 145 90 198a908 908 0 00 311 180 2180 2180 0 00 330 72 640 640 0 00 125 10c146-10 276-19 403-51a1911 1911 0 00 239-80c73-30 126-85 158-166 19-50 20-98 0-140a290 290 0 00-104-130 1324 1324 0 00-145-80 901 901 0 00-208-62l-43-10a1670 1670 0 00-386-55h-51c-94 2-183 3-271 26l-54 14c-47 10-90 22-132 40-52 22-107 46-161 72a247 247 0 00-87 83 76 76 0 00-11 33zm920-657c74-3 183 15 298 34l13 2a1146 1146 0 01 677 376c80 86 124 194 130 321a1103 1103 0 01 2 55c0 58-5 110-17 157a375 375 0 01-74 160l-25 33c-20 26-39 54-66 77a1172 1172 0 01-336 213c-104 40-210 60-313 80a1584 1584 0 01-470 15 2127 2127 0 01-490-117 1640 1640 0 01-280-147 838 838 0 01-204-177 566 566 0 01-124-280 668 668 0 01 39-338 307 307 0 01 34-68 634 634 0 01 229-222 1303 1303 0 01 367-132c178-33 360-46 610-42M6313 385c-21 84-92 75-115 73-112-13-229-10-342-8h-10c-74 2-150 1-223 0h-50c-10 0-22-1-32 0v30a12840 12840 0 01 0 460h16c30-3 60-8 92-14l39-7a411 411 0 01 74-12 95 95 0 01 102 66l1 4c6 16 12 34 14 54l10 118 2 33c3 44-24 78-68 82a359 359 0 01-66 2c-60-6-121 2-185 10l-34 4a2330 2330 0 00-10 224v144c0 110 3 220 11 325v46l-2 10a2040 2040 0 00 3 400c3 25 3 47-2 66-9 34-28 79-96 79h-3l-120-2-88-1a79 79 0 01-78-67 243 243 0 01-3-70c15-146 15-298 14-430l1-258 2-223c0-43-2-86-4-128A20040 20040 0 01 5160 920a39416 39416 0 01 10-601l2-91 1-30c6-50 32-76 80-81 58-7 110-10 160-13h82c42 0 83 0 122-4a300 300 0 01 67 0h43l69-3a3670 3670 0 01 168-6 5347 5347 0 01 260 7c60 2 100 40 109 100a510 510 0 01-20 187m-85 1094c-2-43 23-74 65-80l20-5c18-3 38-8 60-6 80 6 164 5 244 4h111c35-1 70-4 108-7l46-4 14-2 31-4h260l56-1h28c50 8 80 37 90 88 3 18 3 36 3 50v66c2 85 4 172 1 258-1 54 1 109 4 162l4 101v187l-1 13v24c15 115 15 231 16 344v40l5 517c0 60 2 120 4 181l2 140 2 162v25c0 13 0 28-3 44-13 68-39 90-107 94-160 10-330 20-538 30a2584 2584 0 01-370-4c-54-3-86-30-95-84-10-55-8-114 4-179a77 77 0 01 81-64h80c45 0 90 0 136 3 104 6 210-2 313-8l10-1 33-2a1323 1323 0 00 80-6l1-3c3-17 4-34 4-51a32166 32166 0 00 0-520c-13 0-26 0-38 2l-130 10-149 13c-24 2-51 4-80 0a94 94 0 01-90-90 2027 2027 0 01-10-161c0-50 31-88 80-96h4a810 810 0 01 71-9l213-10 80-3a452 452 0 00 40-8v-344l-30-488c0-20-1-40-3-59h-103a181399 181399 0 01-544 15c-24 0-100 3-107-93-3-43-4-86-5-128l-1-53M4233 0c43 0 74 25 80 66l5 20c3 18 8 39 6 60-6 81-5 164-4 244v110a1317 1317 0 00 11 154l2 14c2 10 4 20 4 32v260l1 55v5l-1 23c-7 50-36 81-87 90a310 310 0 01-50 3l-66 1c-85 2-172 3-258 0-54-1-109 2-162 4l-101 4h-224a2846 2846 0 01-344 15h-40a73970 73970 0 00-698 9l-140 3H1980c-13 0-28 1-44-2-68-13-90-38-94-107-10-160-20-330-30-537a2495 2495 0 01 4-370c3-55 30-86 84-96a513 513 0 01 179 4c40 7 65 40 64 81v81c0 44 0 90-3 136-5 103 2 210 8 312l1 10 2 34c2 27 3 53 6 79v1h2c18 3 35 4 52 4a16395 16395 0 00 515 2l5-1c0-14 0-27-2-39l-10-130-13-148c-2-25-4-52 0-80 5-53 38-86 90-91 50-5 103-8 161-9 50 0 88 30 96 80v4c4 22 8 46 9 70l10 213 3 81 8 40h32l238-1h74l488-29 59-4V658l-8-275-7-270c-1-24-3-100 93-107 43-3 86-4 128-5l53-1M105 4238c-43 0-74-24-80-66l-4-20a208 208 0 01-7-60c6-80 5-163 4-244v-110c0-36-4-70-7-108l-4-46-2-15a204 204 0 01-4-31v-260l-1-56v-5l1-22c7-51 36-81 87-90a310 310 0 01 50-3l66-1c85-2 172-3 258 0a4325 4325 0 00 263-8H950c115-14 231-15 344-15h40a73970 73970 0 00 698-10l140-2 162-1h25c14 0 28 0 44 3 68 13 90 38 95 107l29 537a2582 2582 0 01-4 370c-3 55-30 86-83 95a510 510 0 01-180-3c-40-7-65-40-64-82v-80c0-45 0-90 3-136 6-104-1-210-8-313v-10l-3-33c-2-27-3-53-6-79v-1h-2a480 480 0 00-52-5 32232 32232 0 00-520 0c0 13 0 26 2 39l10 130 13 148c2 24 4 52 0 80-5 53-38 86-90 90-50 6-103 9-160 10a90 90 0 01-97-80v-4a698 698 0 01-9-70l-10-214-3-80-8-40H910l-488 30c-20 0-40 2-58 4-2 36-2 70 0 102l7 275 7 270c0 24 3 100-92 107-44 3-87 4-130 5h-52m9592 11867-1 45c-3 84-7 172-15 258a2070 2070 0 01-43 275c-31 133-80 253-145 357-6 8-12 18-22 27l-3 2c-73 64-150 130-254 160a470 470 0 01-126 16 632 632 0 01-266-62c-65-27-106-80-140-120-50-62-84-130-111-187a1160 1160 0 01-76-232 1722 1722 0 01-54-393v-129c-2-130 5-267 22-406l7-60c8-70 16-142 32-214a1007 1007 0 01 54-171c50-117 107-238 199-340a480 480 0 01 224-155 500 500 0 01 435 62A361 361 0 01 9520 14950a751 751 0 01 113 304l10 77 16 144c3 28 3 60-18 84-20 24-51 30-75 30-56 4-112 7-174 9-53 2-80-22-86-77l-10-93-16-134a514 514 0 00-17-84 107 107 0 00-34-55c-40-32-75-37-122-18-66 26-113 76-147 158-23 54-38 113-54 170a3097 3097 0 00-42 187 1535 1535 0 00-30 409c7 97 10 178 13 252v24a370 370 0 00 10 90c10 28 10 54 12 78 0 17 0 32 4 46 14 66 40 128 67 187a220 220 0 00 73 92c55 40 97 46 142 24 16-8 28-21 42-39a443 443 0 00 78-225c12-110 23-223 33-333l12-130c7-70 40-106 108-114 13-2 26-2 37-2h17l22-1 84-5c29-2 61-2 85 21 23 23 25 54 24 78m1122-1703a380 380 0 00-47-3 247 247 0 00-198 90 908 908 0 00-180 311c-35 108-54 220-72 330a640 640 0 00-10 125c10 145 19 276 51 403a1925 1925 0 00 80 239c30 73 85 126 166 157 50 20 98 20 140 1 57-25 100-60 130-104 32-50 60-104 80-145 31-64 46-134 62-208l10-44c32-141 56-260 55-386a7208 7208 0 01 0-50c-2-95-3-184-26-272l-14-53c-10-47-21-90-40-132a4370 4370 0 00-72-161 247 247 0 00-83-87 75 75 0 00-32-11zm656 920c3 74-15 183-34 298l-2 13c-18 112-60 218-93 297-56 130-143 247-283 379a491 491 0 01-321 131l-55 2c-58 0-109-6-157-17a375 375 0 01-160-74 675 675 0 00-33-25c-26-20-53-40-77-66a1173 1173 0 01-213-337c-40-103-60-210-80-313a1583 1583 0 01-14-470 2125 2125 0 01 116-489c36-97 88-184 147-280a836 836 0 01 177-204c79-65 170-106 280-125a666 666 0 01 338 40 305 305 0 01 68 34 634 634 0 01 222 228 1302 1302 0 01 132 368c34 178 46 360 42 610M12450 18070c-84-21-76-92-73-115 13-112 10-229 7-342v-10c-2-74 0-150 0-223l1-50v-32h-30a12801 12801 0 01-460 0v16c2 30 8 60 13 91l7 40 5 23 8 51a95 95 0 01-66 102l-5 1c-16 6-33 12-53 14l-118 10-33 2c-45 3-78-24-83-68a353 353 0 01-1-66c5-60-2-121-10-185l-4-34c-77-8-153-10-225-10h-143c-110 0-220 3-325 11h-46l-10-2c-150-9-274-14-400 3a176 176 0 01-66-2c-34-9-80-28-80-96v-3c2-40 2-80 2-120l2-88a79 79 0 01 67-78 244 244 0 01 70-3c146 15 297 15 430 14l258 1 223 1c42 0 86-1 128-3a4161 4161 0 01 115-3h360a43385 43385 0 01 600 10l92 2 30 1c49 6 76 32 80 80a1979 1979 0 01 14 242c0 42 0 83 4 122 2 24 1 46 0 67v43l3 69c3 55 5 112 6 168 0 90-4 182-7 260a110 110 0 01-101 109 490 490 0 01-186-20m-1585-404c43-1 74 23 80 65l5 20c4 18 8 38 6 60-6 81-5 164-4 244v111a1257 1257 0 00 7 108l4 46 2 14c2 10 4 20 4 32l1 260v83c-8 50-37 80-88 90a310 310 0 01-50 3h-66c-84 2-172 4-258 1a2190 2190 0 00-162 4l-101 4h-187l-13-1h-24a2789 2789 0 01-343 16h-42a66574 66574 0 00-697 9l-140 2-162 2h-25c-13 0-28 0-44-3-68-13-90-39-94-107-10-160-20-330-30-538a2582 2582 0 01 4-370c4-54 30-86 84-95a510 510 0 01 180 4 77 77 0 01 63 81v81c0 44 0 90-3 135-5 104 2 210 9 313v10l2 34c2 27 3 53 6 78v2h3c17 3 34 4 51 4a32232 32232 0 00 520 0l-1-38-11-130-12-149c-2-24-4-51-2-80 6-52 40-85 91-90a2090 2090 0 01 161-10c50 0 88 31 96 80v4c4 23 8 47 9 71l10 213 4 80c2 16 5 32 8 40h343l488-30c20 0 40-1 59-3v-103l-8-274-7-270c0-24-3-100 93-107 43-3 86-4 128-5l53-1m4014-583 2-44a4175 4175 0 01 15-259c10-104 24-194 43-274 30-133 80-254 145-357 5-8 12-18 22-27l2-2a650 650 0 01 255-160 471 471 0 01 125-16 702 702 0 01 266 61 370 370 0 01 140 121c50 61 84 129 112 187a1741 1741 0 01 129 624v129c3 130-5 267-22 406l-6 60c-8 70-16 143-33 214a1005 1005 0 01-53 172c-50 116-108 238-200 339a480 480 0 01-223 155 501 501 0 01-435-62 361 361 0 01-106-112 753 753 0 01-114-304l-9-77-16-144c-3-28-3-60 18-85 20-24 50-29 75-30 55-4 112-6 173-8 54-2 80 21 87 76a11165 11165 0 01 10 93l16 134c4 34 10 60 17 84a108 108 0 00 34 56c40 31 74 37 122 18 66-27 112-77 147-158a1320 1320 0 00 53-170 2830 2830 0 00 43-188 1533 1533 0 00 30-408c-7-98-11-178-14-252v-24c0-33 0-63-10-90a260 260 0 01-11-79c0-16 0-32-4-46-15-65-41-127-67-187a218 218 0 00-74-92c-54-39-96-46-142-24-15 8-28 22-40 40a443 443 0 00-80 225 20153 20153 0 00-32 332l-13 130c-7 70-40 106-108 115l-36 2h-40l-83 6c-30 2-62 1-86-22-23-22-25-53-24-78m-1120 1704a381 381 0 00 46 3c80 0 144-30 197-90a908 908 0 00 180-312 2160 2160 0 00 73-329c8-48 10-89 9-125-9-146-18-277-50-404a1919 1919 0 00-80-238c-30-74-86-127-167-158-50-20-97-20-140 0-56 24-100 60-129 104a1320 1320 0 00-80 145 902 902 0 00-63 208l-10 43c-31 142-56 260-54 386v50c1 95 2 184 26 272l13 54a780 780 0 00 40 132c23 52 47 107 73 160a240 240 0 00 83 87 75 75 0 00 32 12zm-657-920c-3-74 15-183 33-298l2-14a1300 1300 0 01 94-296c55-130 142-247 282-380a490 490 0 01 322-130c19-2 37-2 54-2a687 687 0 01 158 16 376 376 0 01 159 74 704 704 0 00 34 26 420 420 0 01 76 66 1170 1170 0 01 213 336c41 104 60 210 80 313a1584 1584 0 01 15 470 2126 2126 0 01-117 490c-36 96-87 183-147 279a837 837 0 01-177 204 567 567 0 01-280 125 667 667 0 01-338-40 305 305 0 01-67-33 632 632 0 01-223-229 1304 1304 0 01-131-368c-34-177-46-360-42-609m-976-2750c84 22 76 92 73 115-13 113-10 230-8 342v10c3 75 1 150 0 224v82h30a13190 13190 0 01 460-1v-16c-3-30-8-60-14-90l-7-40-4-24c-3-16-7-33-8-50a95 95 0 01 66-102l4-2c16-5 34-12 54-14l118-10 33-2c45-3 78 24 82 68 2 18 4 42 2 66-5 61 2 122 10 186l4 34a2244 2244 0 00 224 10h144c110 0 220-3 325-12l46 1 10 1c150 10 273 15 400-2a160 160 0 01 66 2c34 8 79 27 79 95v4l-2 119v88a79 79 0 01-68 78 244 244 0 01-70 4 3732 3732 0 00-430-14c-87 0-172 0-258-2h-223c-43 0-86 0-128 2l-116 4h-360l-415-5-185-5-91-2c-10 0-20 0-30-2-50-5-76-31-81-80a1814 1814 0 01-14-241c0-43 0-83-3-123a300 300 0 01 0-67v-42l-3-70c-3-54-6-111-6-168a5273 5273 0 01 7-260c2-60 40-100 101-108 64-9 125 4 186 20m1585 404c-44 0-75-24-81-66l-4-20c-4-18-8-38-7-60 7-80 6-163 5-244l-1-110a1317 1317 0 00-10-154l-3-15c-1-9-3-20-3-31l-1-260v-83c7-51 37-81 88-90a310 310 0 01 50-4h66c84-2 171-3 258 0a4433 4433 0 00 262-8c43-1 86 0 128 0h97c115-14 230-15 343-16h41a73970 73970 0 00 698-8l140-3 161-1h25c14 0 29 0 44 3 69 13 90 38 95 107 10 160 19 330 30 537 3 66 4 119 3 167a4656 4656 0 01-8 203c-3 55-30 86-83 95a510 510 0 01-180-3c-40-7-65-40-64-82v-80l3-136c6-104-1-210-8-313v-10l-3-33c-1-27-3-53-6-79v-1h-2c-17-3-35-5-51-5a32203 32203 0 00-520 0l1 38 10 130c5 50 10 100 13 150 2 23 4 50 1 79-5 53-39 86-90 90a2028 2028 0 01-162 10 90 90 0 01-95-80v-4c-4-23-8-46-10-70l-10-214-3-80c-2-16-5-30-8-40h-343l-488 30c-20 0-40 2-60 4v102l8 275 8 270c0 24 2 100-93 107-43 3-87 4-129 5a3475 3475 0 00-52 0m-5373-3598c20-84 90-76 114-73 113 13 230 10 342 7h10c75-2 150 0 224 0l50 1h31v-30a13182 13182 0 01 0-460h-16c-30 2-60 8-91 13l-40 7-23 5-50 8a95 95 0 01-103-66l-1-5c-5-16-12-33-14-53l-10-118-2-34a73 73 0 01 68-82c18-2 42-3 66-1 60 5 121-2 185-10l34-4c8-77 10-153 10-225V10660c1-110-2-220-10-325-2-17 0-32 0-46v-10c10-150 16-274-2-400a180 180 0 01 2-67c9-34 28-78 96-78h4l118 1 90 2a79 79 0 01 77 67c5 25 6 48 4 70-16 146-15 297-15 430v258l-2 223 3 128 4 115a22902 22902 0 01-5 776l-5 185-2 90c0 10 0 20-2 30-5 50-31 76-80 82a2233 2233 0 01-242 13c-42 0-82 0-122 4-24 2-46 1-67 0a495 495 0 00-42 0l-70 3-168 6c-90 0-181-4-260-7-60-3-100-40-109-101-8-65 5-125 20-186m4467 1047 44 2c85 3 172 6 259 15 104 10 193 24 274 43 133 30 253 80 357 145 8 6 18 12 27 22l2 2a650 650 0 01 160 255 470 470 0 01 16 125 704 704 0 01-61 266c-28 66-80 107-121 140a930 930 0 01-187 112 1160 1160 0 01-232 76 1720 1720 0 01-393 53H12820c-130 3-267-5-406-21l-60-7c-70-8-142-16-214-33a1008 1008 0 01-171-53 1170 1170 0 01-340-200 480 480 0 01-155-223 501 501 0 01 62-435 361 361 0 01 113-106 750 750 0 01 304-113l77-10 144-16c28-3 60-3 84 18 24 20 29 50 30 75 4 55 7 112 9 173 2 54-22 80-76 87a11033 11033 0 01-94 10l-134 16a523 523 0 00-84 17 107 107 0 00-55 34c-32 40-37 75-18 122 26 66 76 113 158 147a2811 2811 0 00 357 96c143 29 276 38 409 30a6833 6833 0 01 276-14c32 0 62 0 90-10s55-10 78-10c17-1 32-2 46-5 66-15 127-41 187-67a220 220 0 00 92-74c40-54 46-96 24-141-8-16-21-28-39-42a443 443 0 00-225-78c-110-12-223-23-333-33l-130-13c-70-6-106-40-114-108-2-12-2-25-2-36v-17l-1-23a3500 3500 0 00-5-83c-2-29-1-62 21-85 23-24 54-25 79-25m-2078-1094a388 388 0 00-2 47c0 80 29 144 90 197a910 910 0 00 310 180c108 36 220 54 330 73 48 8 89 10 126 8 145-8 276-17 403-50a1915 1915 0 00 239-80 275 275 0 00 157-166c20-50 20-97 0-140a290 290 0 00-103-130 1332 1332 0 00-145-80 902 902 0 00-208-62l-44-10c-142-31-260-56-386-54h-50c-95 1-184 2-272 26l-53 13a753 753 0 00-132 40 4401 4401 0 00-161 73 247 247 0 00-87 82 76 76 0 00-12 33zm920-656a1710 1710 0 01 299 33l13 2c112 18 218 60 297 93 130 56 247 143 379 283a490 490 0 01 131 322 1097 1097 0 01 2 54c0 58-6 110-17 158a376 376 0 01-74 159l-26 33a390 390 0 01-65 77 1171 1171 0 01-337 213c-103 40-210 60-313 80a1584 1584 0 01-470 15 2125 2125 0 01-489-117c-97-36-184-88-280-147a840 840 0 01-204-177 567 567 0 01-125-280 667 667 0 01 40-338 308 308 0 01 34-67 632 632 0 01 228-223 1301 1301 0 01 368-131c177-34 360-47 610-42m2866-1147c-20 84-90 76-114 73-113-13-230-10-342-7h-10c-75 2-150 0-224 0l-50-1h-32v30a13182 13182 0 01 1 460h16c30-2 60-8 91-13l40-7a695 695 0 00 23-5l50-8a95 95 0 01 102 66l2 5c5 15 12 33 14 53l10 118 2 33c3 45-24 78-68 82a355 355 0 01-66 2c-60-5-121 2-185 10l-34 4c-9 77-10 153-10 224v144c-1 110 2 220 10 325 2 17 0 32 0 46v10c-10 150-16 273 2 400 3 25 2 47-2 66-9 34-28 80-96 80h-4l-118-3h-90a79 79 0 01-77-68c-5-25-6-48-4-70 16-146 15-297 15-430v-258l2-223-3-128-4-115v-360a39441 39441 0 01 10-600l2-92c0-10 0-20 2-30 5-50 31-76 80-81a2231 2231 0 01 242-13c42 0 82 0 122-4 24-3 46-1 67 0h42l70-3c55-3 112-6 168-6a5273 5273 0 01 260 7c60 3 100 40 108 101 9 65-4 125-20 186m-85 1095c0-44 24-75 66-81l20-4c18-4 38-8 60-7 80 7 163 6 244 4h110c36 0 70-3 108-7a3027 3027 0 01 46-4l15-2c10-1 20-3 31-3l260-2h61l22 1c51 7 81 37 90 88 3 18 3 35 4 50v66c2 84 3 171 0 258a4433 4433 0 00 8 262c1 43 0 86 0 128v96c15 116 15 232 16 344v41c0 172 2 344 5 516l3 181 3 140 1 162v25c0 14 0 29-3 44-13 69-38 90-107 95-160 10-330 19-537 30-66 3-119 4-167 3a4656 4656 0 01-203-8c-55-3-86-30-95-83a513 513 0 01 3-180c7-40 40-65 82-64h80l136 3c104 6 210-1 313-8h10l33-3c27-1 53-3 79-6h1v-2c3-18 5-35 5-52a16394 16394 0 00 0-514v-5l-38 1-130 10c-50 5-100 10-149 13-24 2-52 4-80 1-52-6-86-39-90-90a1620 1620 0 01-10-162c0-50 30-88 80-95l4-1c23-4 46-7 70-8l214-10 80-4 40-8v-344l-30-488c0-20-2-40-4-58h-102l-274 7-270 8c-25 0-100 2-107-93-4-43-5-87-6-129v-52m-1996-1480c44-1 75 24 81 66l4 20a207 207 0 01 7 60c-7 80-6 163-5 244l1 110c0 36 3 70 7 108l4 46 2 15c1 10 3 20 3 31l2 260v61l-1 22c-7 51-37 81-88 90a318 318 0 01-50 4h-66c-84 2-171 3-258 0a4433 4433 0 00-262 8c-43 1-86 0-128 0h-97c-115 14-230 15-343 16h-41a73970 73970 0 00-698 8l-140 3-161 1h-25c-14 0-29 0-44-3-69-13-90-38-95-107-10-160-19-330-30-537a2585 2585 0 01-3-167c0-73 4-143 8-203 3-55 30-86 83-95 56-10 114-9 180 3 40 7 65 40 64 82a4083 4083 0 00 0 80c0 45 0 90-3 136-6 104 1 210 8 313v10l3 33c1 27 3 53 6 79v1h2c17 3 35 5 52 5a32232 32232 0 00 514 0h5v-38a28475 28475 0 00-12-130l-12-149c-2-24-4-52-1-80 5-53 39-86 90-90a1620 1620 0 01 162-10c50 0 88 30 95 80v4c5 23 8 46 10 70l10 214 3 80 8 40h344l487-30c20 0 40-2 60-4v-102l-8-275-8-269c0-25-2-100 93-108 43-3 87-4 129-5h52m-4127 4237c-44 1-75-24-80-65l-5-20a208 208 0 01-6-60c6-81 5-164 4-244v-111c-1-35-4-70-7-108l-5-46c0-5 0-10-2-14-1-10-3-20-3-32l-1-260v-83c8-50 37-80 88-90a310 310 0 01 50-3l66-1c84-2 171-3 258 0 53 1 109-2 162-4l100-4h188l13 1h24c115-15 230-16 343-16h41a73970 73970 0 00 698-9l140-3h187c14 0 29 0 45 2 68 13 90 38 94 107 10 160 20 330 30 537a2495 2495 0 01-4 370c-4 55-31 87-84 96a513 513 0 01-180-4c-40-7-65-40-63-81v-81c0-44 0-90 3-135 5-104-2-210-9-313v-10l-2-34c-2-27-3-53-6-79l-3-1c-17-3-34-4-51-4a45012 45012 0 00-515-1h-5l1 39 11 130 12 148c2 25 4 52 2 80-6 53-40 86-91 91-50 5-103 8-161 10a90 90 0 01-96-80v-4a701 701 0 01-10-71l-9-213-3-81-8-40h-32l-238 1h-74l-488 30c-20 0-40 1-59 3a1937 1937 0 00 0 102l8 275 7 270c0 24 3 100-93 107-43 3-86 4-128 5l-53 1m1390-7510-1 44c-3 85-7 173-15 260-10 103-24 193-43 273-31 134-80 254-145 357-6 8-12 19-22 27l-3 2a637 637 0 01-254 160c-40 10-80 16-126 16a653 653 0 01-76-4 699 699 0 01-190-57c-65-28-106-80-140-121a860 860 0 01-111-186c-37-78-59-160-76-233a1720 1720 0 01-54-392v-130a2970 2970 0 01 22-405l7-60c8-70 16-143 32-214a1007 1007 0 01 54-172c50-116 107-237 199-339a480 480 0 01 224-155 500 500 0 01 435 62A363 363 0 01 9520 5260a752 752 0 01 113 304l10 77 16 144c3 28 3 60-18 85-20 24-51 29-75 30-56 4-112 6-174 8-53 3-80-21-86-76l-10-93-16-134a514 514 0 00-17-84 107 107 0 00-34-56c-40-31-75-36-122-18a268 268 0 00-147 158c-23 54-38 113-54 170a3120 3120 0 00-42 188 1535 1535 0 00-30 409c7 97 10 177 13 252v23a360 360 0 00 10 90c10 28 10 55 12 79 0 16 0 32 4 46A1100 1100 0 00 8940 7050a220 220 0 00 73 92c55 39 97 46 142 24 16-8 28-22 42-40a443 443 0 00 78-225c12-110 23-223 33-332l12-130c7-70 40-106 108-115l37-1h17l22-2c28-1 56-2 84-5 29-2 61 0 85 22 23 22 25 53 24 78M10820 4712a380 380 0 00-47-3 247 247 0 00-198 90 910 910 0 00-180 312c-35 107-54 220-72 329-8 48-11 89-10 125 10 146 19 277 51 404a1917 1917 0 00 80 238c30 74 85 127 166 158 50 20 98 20 140 0a290 290 0 00 130-104 1280 1280 0 00 80-145c31-64 46-134 62-207a4607 4607 0 01 10-44 1670 1670 0 00 55-386 7208 7208 0 01 0-50c-2-95-3-184-26-272l-14-54c-10-46-21-90-40-131a4370 4370 0 00-72-162 248 248 0 00-83-86 75 75 0 00-32-12zm656 920c3 74-15 183-34 299l-2 13c-18 112-60 217-93 297a1130 1130 0 01-283 378 490 490 0 01-321 132 1097 1097 0 01-55 2 680 680 0 01-157-17 375 375 0 01-160-74c-10-10-22-17-33-26-26-19-53-38-77-66a1171 1171 0 01-213-336c-40-103-60-210-80-313a1583 1583 0 01-14-470 2125 2125 0 01 116-490 1570 1570 0 01 147-279 838 838 0 01 177-204c79-66 170-107 280-125a666 666 0 01 338 40 305 305 0 01 68 33 634 634 0 01 222 230 1303 1303 0 01 132 367 2890 2890 0 01 42 610M12450 8380c-84-20-76-90-73-114 13-113 10-230 7-342v-10c-2-75 0-150 0-224l1-50v-30h-30a13182 13182 0 01-460 1v16c2 30 8 60 13 91l7 40 5 23 8 50a95 95 0 01-66 102l-5 2c-16 5-33 12-53 14l-118 10-33 2c-45 3-78-24-83-68a354 354 0 01-1-66c5-60-2-121-10-185l-4-34c-77-8-153-10-225-10h-143c-110-1-220 2-325 10-17 2-32 0-46 0h-10c-150-10-274-16-400 2a174 174 0 01-66-2c-34-9-80-28-80-96v-4c2-40 2-79 2-118l2-90a79 79 0 01 67-77c25-5 48-6 70-4 146 16 297 15 430 15h258l223 2 128-3 115-4h360a43385 43385 0 01 600 10l92 2c10 0 20 0 30 2 49 5 76 31 80 80 7 57 11 110 13 160 1 27 2 54 1 81 0 43 0 83 4 123 2 24 1 46 0 67v42a7485 7485 0 00 3 70c3 54 5 112 6 168a5279 5279 0 01-7 260 110 110 0 01-101 108c-65 9-125-4-186-20m-1585-404c43 0 74 24 80 66l5 20c4 18 8 38 6 60-6 80-5 164-4 244v110c0 36 4 71 7 108l4 46 2 15c2 10 4 20 4 31l1 260v83c-8 51-37 81-88 90a316 316 0 01-50 4h-66c-84 2-172 3-258 0-53 0-109 2-162 5-34 1-67 3-101 3h-224c-115 15-231 15-343 16h-42a73970 73970 0 00-697 8l-140 3-162 1h-25c-13 0-28 0-44-3-68-13-90-38-94-107-10-160-20-330-30-537a2588 2588 0 01 4-370c4-55 30-86 84-95 55-10 114-8 179 3 40 8 66 40 64 82v80c0 45 0 90-3 136-5 104 2 210 8 313l1 10 2 33 6 80h3c17 3 34 5 50 5a45124 45124 0 00 520 0v-38l-11-130-13-149c-2-24-4-52 0-80 5-52 38-86 90-90 50-6 103-8 161-10 50 0 88 30 96 80v4c4 23 8 46 9 70l10 214 3 80a497 497 0 00 8 40h344l488-30c20 0 40-2 59-4v-102l-8-274-7-270c0-25-3-100 93-108 43-3 86-4 128-4l53-2m4014-582 2-45c3-84 6-172 15-258a2070 2070 0 01 43-275c30-133 80-253 145-357 5-8 12-18 22-26l2-3a650 650 0 01 255-160 477 477 0 01 201-10c69 7 132 31 190 56a370 370 0 01 140 120c50 62 84 130 112 187a1750 1750 0 01 129 625v128c3 131-5 268-22 407l-6 60c-8 70-16 142-33 214a1008 1008 0 01-53 171 1180 1180 0 01-200 340 480 480 0 01-223 155 501 501 0 01-435-62 362 362 0 01-106-113 751 751 0 01-114-304l-9-77-16-144c-3-28-3-60 18-84 20-24 50-29 75-30a4330 4330 0 01 173-9c54-2 80 22 87 77a11033 11033 0 01 10 93l16 134c4 34 10 60 17 84a107 107 0 00 34 55c40 32 74 37 122 18 66-26 112-76 147-158a2675 2675 0 00 96-357c28-142 38-276 30-409a6833 6833 0 01-14-252v-24c0-32 0-62-10-90a260 260 0 01-11-78 233 233 0 00-4-46 1100 1100 0 00-67-187 220 220 0 00-74-92c-54-40-96-46-142-24a110 110 0 00-40 40 444 444 0 00-80 224l-32 333-13 130c-7 70-40 106-108 114-13 2-25 2-36 2h-17l-23 2c-27 0-55 2-83 4-30 3-62 2-86-21-23-22-25-54-24-78m-1120 1703a392 392 0 00 46 3c80 0 144-29 197-90a908 908 0 00 180-311c36-107 55-220 73-329 8-48 10-89 9-126-9-145-18-276-50-403a1911 1911 0 00-80-239 280 280 0 00-167-157c-50-20-97-20-140 0a290 290 0 00-129 103 1324 1324 0 00-80 145 901 901 0 00-63 208l-10 44c-31 141-56 260-54 386v50c1 95 2 184 26 272l13 53c11 47 22 91 40 132 23 52 47 107 73 161 18 37 52 65 83 87a76 76 0 00 32 11zm-657-920c-3-74 15-183 33-298l2-13a1300 1300 0 01 94-297c55-130 142-247 282-379 86-80 194-125 322-131l54-2c59 0 110 6 158 17a376 376 0 01 159 74c10 9 22 17 34 25a420 420 0 01 76 66c103 120 169 224 213 337 41 103 60 210 80 313a1584 1584 0 01 15 470 2127 2127 0 01-117 489c-36 97-87 184-147 280a838 838 0 01-177 204 567 567 0 01-280 125 667 667 0 01-338-40 307 307 0 01-67-34 632 632 0 01-223-228 1302 1302 0 01-131-368 2890 2890 0 01-42-610M12127 5430c84 20 76 90 73 114-13 113-10 230-8 342v10c3 74 1 150 0 223v82h30c170-2 310-3 440 0h20v-16c-3-30-8-60-14-91l-7-40a438 438 0 01-12-74 95 95 0 01 66-102l4-1c16-6 34-12 54-14l118-10 33-2c45-3 78 24 82 68a352 352 0 01 2 66c-5 60 2 121 10 185l4 34c76 8 153 10 224 10h144c110 0 220-3 325-10 16-2 32 0 46 0h10c150 10 273 15 400-2 25-3 47-3 66 2 34 9 79 28 79 96v3l-2 120v88a79 79 0 01-68 78 244 244 0 01-70 3 3857 3857 0 00-430-14l-258-1-223-1c-43 0-86 1-128 3a20040 20040 0 01-475 3 43410 43410 0 01-601-10l-91-2h-30c-50-7-76-33-81-80a1814 1814 0 01-14-243c0-42 0-82-3-122a300 300 0 01 0-67v-43l-3-69c-3-55-6-112-6-168a5273 5273 0 01 7-260c2-60 40-100 101-109 64-8 125 5 186 20m1585 404c-44 2-75-23-81-65l-4-20c-4-18-8-38-7-60 7-80 6-164 5-244l-1-111a1320 1320 0 00-13-168c-1-10-3-20-3-31l-1-260V4790c7-50 37-80 88-90a310 310 0 01 50-3h66c84-2 171-4 258-1 53 2 108-1 162-4l100-4h188l12 1h25c115-15 230-15 343-16h41a73970 73970 0 00 698-9l140-2 161-2h25c14 0 29 0 44 3 69 14 90 39 95 108 10 160 19 330 30 537 3 65 4 118 3 167a4656 4656 0 01-8 202c-3 56-30 87-83 96a513 513 0 01-180-3 77 77 0 01-64-82v-80l3-136c6-104-1-210-8-313v-10l-3-33a1000 1000 0 00-6-80l-2-1a400 400 0 00-51-4 32203 32203 0 00-520 0l1 38 10 130c5 50 10 100 13 149 2 24 4 52 1 80a94 94 0 01-90 90 2096 2096 0 01-162 10 90 90 0 01-95-80v-4c-4-23-8-47-10-71l-10-213-3-80c-2-16-5-31-8-40h-343l-488 30-60 3v103l8 274 8 270c0 24 2 100-93 107-43 4-87 4-129 5l-52 1M8339 2234c20-83 90-75 114-73 113 13 230 10 342 8h10c75-2 150-1 224 0h81v-30a13182 13182 0 01 0-460h-16a823 823 0 00-91 14l-40 7a468 468 0 00-23 4c-16 4-33 7-50 8a95 95 0 01-103-66l-1-4c-5-16-12-34-14-54l-10-118-2-33a73 73 0 01 68-82c18-2 42-4 66-2 60 6 121-2 185-10l34-3c8-77 10-153 10-225V972c1-110-2-220-10-326-2-16 0-32 0-46v-10c10-150 16-273-2-400a174 174 0 01 2-66c9-34 28-79 96-79h4l118 2 90 1a79 79 0 01 77 67c5 25 6 49 4 70-16 147-15 298-15 431v257l-2 223c0 43 2 86 3 128l4 116v360a43357 43357 0 01-5 416l-5 184-2 91c0 10 0 20-2 30-5 50-31 76-80 81-57 7-110 10-160 13h-82c-42 0-82 0-122 5-24 2-46 0-67 0h-42l-70 2a3671 3671 0 01-427 0 110 110 0 01-110-102 510 510 0 01 20-186m4467 1048 44 2c85 3 172 6 259 15 104 10 193 24 274 43 133 30 253 80 357 145 8 5 18 11 27 21l2 3a650 650 0 01 160 254 470 470 0 01 16 126 704 704 0 01-61 266c-28 65-80 107-121 140a930 930 0 01-187 112c-78 37-160 58-232 75a1720 1720 0 01-393 54h-128a2990 2990 0 01-407-22l-60-6c-70-8-142-16-214-33a996 996 0 01-171-53c-117-50-238-108-340-200a480 480 0 01-155-224 501 501 0 01 62-434A360 360 0 01 11650 3460a752 752 0 01 304-114l77-9 144-16c28-3 60-3 84 17 24 20 30 51 30 76 4 55 7 112 9 173 2 54-22 80-76 87a11033 11033 0 01-94 10l-134 16a510 510 0 00-84 16 107 107 0 00-55 35c-32 39-37 74-18 121 26 67 76 113 158 148 54 22 113 38 170 53a3060 3060 0 00 187 43c143 28 276 38 410 29a6833 6833 0 01 251-13h24a290 290 0 00 90-10c28-10 55-10 78-11 17 0 32-1 46-4 66-15 128-41 188-67a220 220 0 00 91-74c40-54 46-96 24-142-8-16-20-28-39-41a444 444 0 00-225-78c-110-13-223-23-332-33l-130-13c-71-7-106-40-115-108-2-13-2-25-2-37v-16l-1-23a3500 3500 0 00-5-83c-2-30-1-62 21-86 23-23 54-25 79-24m-2078-1094a390 390 0 00-2 46c0 81 29 145 90 198a908 908 0 00 310 180c108 35 220 54 330 72 48 8 89 11 126 10 145-10 276-19 403-51a1911 1911 0 00 239-80c73-30 126-85 157-166 20-50 20-98 0-140a290 290 0 00-103-130 1324 1324 0 00-145-80 902 902 0 00-208-62l-44-10a1670 1670 0 00-386-55h-50c-95 2-184 3-272 26l-53 14c-47 10-91 22-132 40-52 22-108 46-161 72a246 246 0 00-87 83 76 76 0 00-12 33zm920-657c75-3 184 15 299 34l13 2c112 18 218 60 297 93 130 56 247 143 379 283a490 490 0 01 131 321 1103 1103 0 01 2 55c0 58-6 110-17 157a376 376 0 01-74 160l-26 33c-19 26-38 54-65 77a1170 1170 0 01-337 213c-103 40-210 60-313 80a1584 1584 0 01-470 15 2127 2127 0 01-489-117c-97-36-184-88-280-147a838 838 0 01-204-177 566 566 0 01-125-280 667 667 0 01 40-338 307 307 0 01 34-68 634 634 0 01 228-222 1303 1303 0 01 368-132c177-33 360-46 610-42m2866-1146c-20 84-90 75-114 73-113-13-230-10-342-8h-10c-75 2-150 1-224 0h-50c-10 0-22-1-32 0v30a13190 13190 0 01 1 460h16a825 825 0 00 130-20l24-5c16-3 33-7 50-8a95 95 0 01 102 66l2 4a232 232 0 01 14 54l10 118 2 33c3 44-24 78-68 82a360 360 0 01-66 2c-60-6-121 2-185 10l-34 4a2245 2245 0 00-10 224v144c-1 110 2 220 10 325 2 16 0 32 0 46v10c-10 150-16 273 2 400 3 25 2 47-2 66-9 34-28 79-96 79h-4l-118-2-90-1a79 79 0 01-77-67 243 243 0 01-4-70c16-146 15-298 15-430v-258l2-223c0-43-2-86-3-128l-4-116a20040 20040 0 01 0-360 39416 39416 0 01 5-415l5-185 2-91c0-10 0-20 2-30 5-50 31-76 80-81 57-7 110-10 160-13h82c42 0 82 0 122-4a300 300 0 01 67 0h42l70-3a3671 3671 0 01 427 0 110 110 0 01 110 102c8 64-5 125-20 186m-86 1094c0-43 24-74 66-80l20-5c18-3 38-8 60-6 80 6 163 5 244 4h110c36-1 70-4 108-7a2592 2592 0 01 46-4l15-2 31-4h260l56-1h27c51 8 81 37 90 88 3 18 3 36 4 50v66c2 85 3 172 0 258a4325 4325 0 00 8 263v224c15 115 15 231 16 344v40c0 173 2 345 5 517l3 181 3 140 1 162v25c0 13 0 28-3 44-13 68-38 90-107 94-160 10-330 20-537 30a2588 2588 0 01-370-4c-55-3-86-30-95-84a513 513 0 01 3-179 77 77 0 01 82-64h80c45 0 90 0 136 3 104 6 210-2 313-8l10-1 33-2c27-2 53-3 79-6h1v-3c3-17 5-34 5-51a16398 16398 0 00 0-515v-4h-38l-130 11-149 13c-24 2-52 4-80 0-52-5-86-38-90-90-6-50-9-103-10-161 0-50 30-88 80-96h4c23-4 46-7 70-9l214-10 80-3 40-8v-344l-30-488a1303 1303 0 00-4-59h-102l-274 8-270 7c-25 0-100 3-107-93-4-43-5-86-6-128v-53M12433 0c44 0 75 25 81 66l4 20c4 18 8 39 7 60a2490 2490 0 00-5 244l1 111c0 36 3 70 7 108l4 46 2 14c1 10 3 20 3 32l2 260v60l-1 23c-7 50-37 81-88 90a310 310 0 01-50 3l-66 1c-84 2-171 3-258 0-53-1-108 2-162 4l-100 4H11590a2830 2830 0 01-343 15h-41a73970 73970 0 00-698 9l-140 3h-186c-14 0-29 1-44-2-69-13-90-38-95-107-10-160-19-330-30-537a2588 2588 0 01 5-370c3-55 30-86 83-96a513 513 0 01 180 4c40 7 65 40 64 81v81c0 44 0 90-3 136-6 103 1 210 8 312v10l3 34c1 27 3 53 6 79v1h2c17 3 35 4 52 4a16395 16395 0 00 514 2l5-1v-39l-12-130-12-148c-2-25-4-52-1-80 5-53 39-86 90-91s104-8 162-9c50 0 88 30 95 80v4c5 22 8 46 10 70l10 213 3 81 8 40h32l238-1h74l487-29 60-4V658l-8-275-8-270c0-24-2-100 93-107 43-3 87-4 129-5l52-1M8307 4238c-44 0-75-24-80-66l-5-20a208 208 0 01-6-60c6-80 5-163 4-244v-110a1317 1317 0 00-12-154c0-5 0-10-2-15-1-9-3-20-3-31l-1-260v-83c8-51 37-81 88-90a310 310 0 01 50-3l66-1a5548 5548 0 01 258 0c53 0 109-2 162-4 34-2 67-4 100-4 43-1 86 0 128 0h97a2830 2830 0 01 343-15h41a73970 73970 0 00 698-10l140-2 162-1h24c14 0 29 0 45 3 68 13 90 38 94 107 10 160 20 330 30 537a2490 2490 0 01-4 370c-4 55-31 86-84 95a510 510 0 01-180-3c-40-7-65-40-63-82v-80c0-45 0-90 3-136 5-104-2-210-9-313v-10l-2-33c-2-27-3-53-6-79v-1h-3a379 379 0 00-51-5 32166 32166 0 00-520 0l1 39 11 130 12 148c2 24 4 52 2 80-6 53-40 86-91 90-50 6-103 9-161 10a90 90 0 01-96-80v-4c-4-23-8-46-10-70l-9-214-3-80a490 490 0 00-8-40h-344l-488 30c-20 0-40 2-59 4V3580l8 275 7 270c0 24 3 100-93 107-43 3-86 4-128 5h-53" fill="#100f0d" fill-opacity="1" fill-rule="nonzero"/></svg>
