<?xml version="1.0" encoding="UTF-8" standalone="no"?>
<svg
   xmlns:dc="http://purl.org/dc/elements/1.1/"
   xmlns:cc="http://creativecommons.org/ns#"
   xmlns:rdf="http://www.w3.org/1999/02/22-rdf-syntax-ns#"
   xmlns:svg="http://www.w3.org/2000/svg"
   xmlns="http://www.w3.org/2000/svg"
   viewBox="0 0 430.37332 787.32001"
   height="787.32001"
   width="430.37332"
   xml:space="preserve"
   id="svg2"
   version="1.1"><metadata
     id="metadata8"><rdf:RDF><cc:Work
         rdf:about=""><dc:format>image/svg+xml</dc:format><dc:type
           rdf:resource="http://purl.org/dc/dcmitype/StillImage" /></cc:Work></rdf:RDF></metadata><defs
     id="defs6" /><g
     transform="matrix(1.3333333,0,0,-1.3333333,0,787.32)"
     id="g10"><g
       transform="scale(0.1)"
       id="g12"><path
         id="path14"
         style="fill:#100f0d;fill-opacity:1;fill-rule:nonzero;stroke:none"
         d="m 942.211,4351.93 -1.238,-33.14 c -2.285,-63.6 -4.668,-129.34 -11.086,-194.14 -7.735,-78.01 -18.282,-145.27 -32.254,-205.6 -23.184,-99.96 -59.883,-190.08 -109.094,-267.88 -3.855,-6.09 -8.594,-13.59 -16.062,-20.11 l -1.907,-1.69 c -55.234,-48.32 -112.382,-98.29 -190.8,-119.72 -29.454,-8.06 -60.645,-12.07 -94.297,-12.07 -18.282,0 -37.266,1.19 -57.118,3.53 -51.289,6.05 -98.722,24.02 -142.335,42.51 -48.848,20.71 -80.079,59.46 -105.184,90.6 -36.906,45.79 -63,96.39 -83.6446,139.84 -27.7031,58.23 -43.7969,120.4 -56.6992,174.11 -26.668,111.03 -39.41407,204.62 -40.1172,294.54 -0.15625,22.13 -0.105469,44.23 -0.058594,66.33 l 0.039063,30.19 c -1.863279,98 3.593751,200.52 16.222631,304.71 1.7969,14.78 3.4571,29.59 5.1172,44.4 5.8985,52.75 12.0195,107.29 24.3633,161.15 11.6406,50.87 24.3477,91.72 39.9609,128.59 36.9535,87.17 80.6175,178.28 149.3555,254.23 41.934,46.33 94.707,96.39 168.137,116.48 122.82,33.62 232.558,17.95 326.199,-46.53 32.668,-22.48 59.414,-50.84 79.473,-84.29 49.699,-82.86 76.73,-155.3 85.031,-227.96 l 6.758,-57.88 c 4.238,-35.95 8.457,-71.86 12.226,-107.85 2.196,-20.96 2.332,-44.85 -13.234,-63.29 -15.301,-18.11 -38.231,-21.74 -56.492,-22.91 -41.496,-2.6 -84.004,-4.62 -129.953,-6.14 -40.301,-1.56 -60.157,16.28 -64.981,57.16 -2.781,23.38 -5.359,46.78 -7.969,70.18 -3.718,33.5 -7.422,66.97 -11.66,100.4 -3.23,25.38 -7.176,45.39 -12.48,62.96 -5.692,18.93 -13.817,32.15 -25.528,41.59 -29.5,23.74 -56.004,27.63 -91.472,13.52 -49.563,-19.8 -84.582,-57.49 -110.227,-118.62 -16.875,-40.26 -28.719,-84.64 -40.164,-127.56 -13.215,-49.62 -23.535,-98.77 -31.906,-140.43 -21.445,-106.79 -28.653,-207.07 -22.031,-306.59 4.843,-73.12 7.871,-133.18 9.531,-189.02 0.187,-5.95 0.273,-11.9 0.363,-17.84 0.359,-24.18 0.672,-47.05 7.656,-67.58 7.039,-20.73 7.598,-40.99 8.094,-58.87 0.332,-12.34 0.656,-23.96 3.008,-34.32 11.105,-49.06 30.957,-95.54 50.148,-140.5 11.727,-27.46 30.887,-51.32 55.457,-68.98 40.547,-29.16 72.317,-34.48 106.211,-17.83 11.914,5.88 21.047,16 31.075,29.37 32.023,42.72 50.664,96.41 58.671,168.99 9.133,82.88 17.122,167.42 24.844,249.18 3.067,32.6 6.145,65.2 9.309,97.79 5.117,52.82 30.066,79.25 80.906,85.74 9.805,1.26 19.25,1.31 27.598,1.36 4.191,0.02 8.41,0.05 12.609,0.25 l 16.844,0.81 c 20.89,0.98 41.758,1.95 62.597,3.52 21.739,1.68 46.329,1.03 64.036,-16.02 17.39,-16.74 18.796,-40.16 18.152,-58.67" /><path
         id="path16"
         style="fill:#100f0d;fill-opacity:1;fill-rule:nonzero;stroke:none"
         d="m 1783.13,5629.78 c -12.14,1.47 -23.79,2.2 -35,2.2 -60.9,0 -108.59,-21.85 -148.28,-67.39 -61.39,-70.48 -106.74,-149.1 -134.81,-233.71 -26.71,-80.51 -40.83,-164.95 -54.49,-246.61 -6.01,-35.99 -8.19,-66.84 -6.62,-94.32 6.21,-109.27 13.35,-207.45 37.74,-302.49 14.69,-57.14 34.21,-115.75 59.68,-179.09 22.05,-54.9 64.1,-94.65 124.92,-118.17 37.63,-14.53 73.1,-14.7 105.37,-0.49 42.17,18.58 74.64,44.87 96.52,78.13 24.4,37.11 45,77.69 60.23,108.87 23.5,48.16 34.85,100.5 46.85,155.89 2.33,10.86 4.7,21.7 7.14,32.51 24.03,106.44 42.31,195.35 41.19,289.54 -0.23,12.75 -0.36,25.47 -0.49,38.17 -0.74,70.62 -1.43,137.33 -19.05,203.43 -3.55,13.36 -6.8,26.83 -10.03,40.27 -8.41,34.91 -16.33,67.91 -29.8,98.81 -16.98,38.99 -35.17,80.41 -54.74,120.8 -13.49,27.84 -38.93,48.48 -62.03,65.02 -5.9,4.19 -15.2,7.49 -24.3,8.63 z m 492.18,-689.86 c 2.26,-55.78 -11,-137.43 -25.01,-223.85 l -1.62,-9.89 c -13.67,-84.21 -44.56,-163.19 -69.93,-222.6 -41.67,-97.53 -107.11,-185.19 -212.18,-284.27 -64.19,-60.51 -145.24,-93.69 -240.93,-98.65 -14.22,-0.71 -27.86,-1.09 -40.99,-1.09 -43.66,0 -81.86,4.08 -118.03,12.5 -48.96,11.39 -86.86,29.02 -119.23,55.52 -8.19,6.68 -16.83,12.94 -25.46,19.2 -19.71,14.3 -40.08,29.06 -57.42,49.35 -77.11,90.16 -126.36,167.98 -159.68,252.29 -30.71,77.67 -45.48,157.57 -59.77,234.82 -21.3,115.11 -25.12,233.74 -11.39,352.59 14.37,124.29 43.88,247.67 87.67,366.71 26.75,72.65 65.66,137.96 110.03,209.74 36.01,58.22 79.49,108.32 132.96,153.19 58.78,49.34 127.34,80.01 209.57,93.74 78.44,13.1 159.12,3.71 253.9,-29.53 16.69,-5.85 33.67,-14.44 50.48,-25.55 54.78,-36.19 123.29,-88.4 167.06,-171.51 48.64,-92.32 80.86,-182.54 98.56,-275.76 25.24,-133.05 34.62,-269.73 31.41,-456.95" /><path
         id="path18"
         style="fill:#100f0d;fill-opacity:1;fill-rule:nonzero;stroke:none"
         d="m 3007.27,2878 c -62.79,15.79 -56.7,68.43 -54.71,85.7 9.8,84.65 7.65,172.05 5.57,256.63 l -0.18,7.2 c -1.37,56.16 -0.48,112.97 0.42,167.91 l 0.57,37.36 c 0.1,7.25 0.26,16.89 0,24.08 -6.47,0.15 -15.17,0.02 -23.21,-0.12 -127.86,-1.99 -232.46,-2.11 -330.44,-0.36 -6.46,0.12 -11.1,0.03 -14.4,-0.16 0.05,-2.84 0.17,-6.66 0.54,-11.79 1.5,-22.29 5.56,-44.63 9.85,-68.32 1.8,-9.86 3.56,-19.68 5.16,-29.53 0.96,-5.9 2.13,-11.78 3.3,-17.63 2.4,-12.1 4.89,-24.62 5.94,-38.03 2.81,-35.65 -16.13,-64.96 -49.38,-76.31 l -3.41,-1.17 c -11.83,-4.05 -25.22,-8.65 -40.12,-10.16 -29.41,-2.96 -58.91,-5.09 -88.39,-7.2 l -24.91,-1.82 c -33.41,-2.44 -58.18,17.97 -61.63,50.84 -1.41,13.56 -2.83,31.37 -1.31,49.37 3.98,45.67 -1.5,91.04 -7.28,139.08 -1.04,8.49 -2.07,16.98 -3.03,25.49 -57.58,6.07 -114.66,6.97 -168.37,7.35 -24.59,0.18 -49.18,0.14 -73.77,0.09 l -33.86,-0.04 c -82.83,0.67 -164.95,-2.09 -244.12,-8.21 -12.18,-0.95 -23.94,-0.09 -34.28,0.67 l -7.82,0.54 c -111.68,6.86 -204.63,11.08 -299.4,-1.89 -19.09,-2.63 -35.45,-2.13 -49.97,1.53 -25.51,6.39 -59.16,20.82 -59.16,71.79 l 0.02,2.49 c 0.62,29.75 0.97,59.48 1.3,89.21 0.27,22.14 0.51,44.31 0.88,66.48 0.51,30.06 20.32,53.06 50.46,58.58 18.57,3.41 36.07,4.26 52.03,2.56 110.06,-11.78 223.41,-11.15 323.43,-10.62 64.33,0.35 128.68,-0.26 193,-0.9 55.73,-0.51 111.47,-1.05 167.2,-0.96 31.84,0.05 64.5,1.31 96.09,2.54 28.83,1.12 57.66,2.21 86.5,2.51 77.71,0.76 160.86,0.76 269.59,0 104.1,-0.74 208.23,-2.13 312.33,-3.86 46.15,-0.76 92.31,-2.06 138.46,-3.36 l 68.32,-1.78 c 7.47,-0.05 14.96,-0.15 22.34,-1 37.02,-4.27 56.95,-23.79 60.94,-59.71 4.86,-43.66 7.9,-82.97 9.31,-120.13 0.79,-20.5 0.89,-41.03 0.76,-61.63 0,-31.87 -0.04,-61.94 2.85,-91.82 1.71,-17.73 0.97,-34.2 0.22,-50.13 -0.51,-11.15 -0.96,-21.72 -0.55,-31.86 0.71,-17.3 1.56,-34.6 2.44,-51.89 2.04,-41.29 4.2,-83.99 4.37,-126.34 0.3,-67.78 -2.47,-135.88 -5.11,-194.43 -2.04,-45.41 -30.47,-76.07 -76.02,-81.99 -48.14,-6.25 -93.44,3.62 -139.36,15.15" /><path
         id="path20"
         style="fill:#100f0d;fill-opacity:1;fill-rule:nonzero;stroke:none"
         d="m 1818.51,3180.94 c 32.8,0.95 56.09,-17.83 60.76,-49.02 0.73,-4.99 1.85,-9.99 2.94,-14.99 2.89,-13.48 6.16,-28.77 4.88,-45.34 -4.69,-60.36 -3.9,-122.53 -3.13,-182.65 0.36,-27.81 0.69,-55.63 0.55,-83.38 0.26,-26.25 2.36,-52.61 5.01,-80.5 1.1,-11.53 2.17,-23.09 3.1,-34.64 0.26,-3.61 0.87,-7.23 1.45,-10.84 1.11,-6.93 2.36,-14.78 2.42,-23.49 0.52,-64.95 0.77,-129.91 0.99,-194.88 l 0.16,-41.71 c 0,-1.36 0,-2.66 0,-3.92 0,-6.42 -0.16,-11.67 -0.85,-16.81 -5.14,-38.21 -27.15,-60.89 -65.45,-67.42 -13.39,-2.29 -26.67,-2.47 -37.36,-2.6 l -49.54,-0.74 c -63.29,-1.02 -128.71,-2.04 -193.55,-0.16 -40.03,1.16 -81.5,-0.83 -121.58,-2.74 -25.18,-1.21 -50.37,-2.42 -75.55,-2.91 -31.94,-0.66 -64.21,-0.28 -95.4,0.09 -15.01,0.15 -30.02,0.33 -45.03,0.4 l -9.33,0.15 c -6.77,0.16 -13.17,0.32 -18.33,-0.33 -86.27,-11 -173.35,-11.36 -257.545,-11.71 l -30.828,-0.16 c -128.984,-0.79 -257.988,-2.1 -386.984,-3.76 -45.379,-0.59 -90.75,-1.61 -136.141,-2.59 -34.953,-0.76 -69.914,-1.53 -104.863,-2.11 -40.481,-0.65 -80.95,-0.8 -121.426,-0.94 l -18.606,-0.07 c -10.293,-0.05 -21.445,-0.07 -33.2028,2.22 -51.2031,9.94 -67.7539,28.75 -70.832,80.44 -7.1055,119.61 -14.1289,247.63 -22.1172,402.89 -2.539062,49.18 -3.476563,89.04 -3.007812,125.51 0.742187,54.31 3.496092,107.15 6.101562,151.67 2.42578,41.45 22.88285,64.9 62.55075,71.66 41.6215,7.09 85.6175,6.26 134.4845,-2.56 29.976,-5.43 49.141,-29.76 48.211,-61.1 -0.418,-20.19 -0.469,-40.41 -0.488,-60.62 -0.071,-33.16 -0.137,-67.44 -1.934,-101.5 -4.102,-77.84 1.191,-157.52 6.328,-234.59 l 0.496,-7.61 c 0.559,-8.3 1.028,-16.62 1.504,-24.92 1.164,-20.49 2.27,-39.88 4.484,-59.19 l 0.137,-1.11 1.68,-0.24 c 13.016,-1.82 26.008,-2.83 38.594,-2.99 75.07,-0.87 150.144,-1.59 225.234,-1.82 53.586,-0.17 107.156,0.37 160.715,0.95 1.004,0.02 2.281,0.18 3.75,0.45 0.137,10.21 -0.141,19.92 -0.879,29.07 -2.602,32.61 -5.344,65.21 -8.098,97.81 -3.125,37.04 -6.258,74.08 -9.179,111.12 -1.438,18.2 -3.047,38.8 -0.848,59.73 4.187,39.58 29.07,64.46 68.269,68.27 37.801,3.68 77.247,5.84 120.618,6.62 37.965,0.69 66.121,-22.69 71.757,-59.52 l 0.465,-3.01 c 2.629,-17.16 5.344,-34.88 6.282,-53.26 2.714,-53.18 5.07,-106.4 7.429,-159.59 l 2.715,-60.63 c 2.016,-11.43 4.172,-22.86 6.008,-29.43 5.945,-0.34 15.422,-0.23 24.055,-0.14 62.371,0.74 124.741,0.57 178.191,0.41 l 55.53,-0.11 365.89,21.78 c 15.21,0.83 29.72,1.64 44.09,3.01 0.73,27.12 0.76,52.34 0.12,76.88 -1.81,68.6 -3.76,137.18 -5.72,205.8 -1.9,67.39 -3.81,134.79 -5.6,202.18 -0.45,18.54 -2,75.05 69.7,80.62 32.36,2.52 64.92,3.14 96.39,3.73 13.09,0.24 26.16,0.49 39.36,0.89" /><path
         id="path22"
         style="fill:#100f0d;fill-opacity:1;fill-rule:nonzero;stroke:none"
         d="m 3050.33,2284.85 c -15.79,-62.78 -68.43,-56.69 -85.7,-54.7 -84.65,9.8 -172.04,7.65 -256.62,5.56 l -7.21,-0.17 c -56.15,-1.37 -112.97,-0.48 -167.91,0.42 l -37.35,0.56 c -7.26,0.11 -16.9,0.27 -24.08,0 -0.16,-6.46 -0.02,-15.16 0.11,-23.2 1.99,-127.86 2.11,-232.46 0.36,-330.44 -0.12,-6.46 -0.03,-11.1 0.15,-14.4 2.85,0.05 6.67,0.17 11.8,0.54 22.29,1.5 44.63,5.56 68.32,9.85 9.86,1.8 19.68,3.56 29.52,5.15 5.91,0.97 11.79,2.14 17.64,3.31 12.1,2.4 24.62,4.89 38.03,5.94 35.65,2.81 64.96,-16.13 76.31,-49.38 l 1.17,-3.41 c 4.05,-11.83 8.65,-25.22 10.15,-40.12 2.97,-29.41 5.1,-58.91 7.21,-88.4 l 1.82,-24.9 c 2.44,-33.41 -17.97,-58.18 -50.84,-61.63 -13.56,-1.41 -31.37,-2.83 -49.37,-1.31 -45.67,3.98 -91.04,-1.5 -139.08,-7.28 -8.5,-1.04 -16.98,-2.07 -25.49,-3.03 -6.07,-57.58 -6.97,-114.66 -7.35,-168.37 -0.18,-24.59 -0.14,-49.18 -0.09,-73.77 l 0.04,-33.86 c -0.67,-82.83 2.09,-164.95 8.21,-244.12 0.95,-12.18 0.09,-23.94 -0.67,-34.28 l -0.54,-7.82 c -6.86,-111.68 -11.08,-204.641 1.89,-299.399 2.62,-19.089 2.13,-35.449 -1.53,-49.972 -6.39,-25.508 -20.82,-59.16 -71.79,-59.16 l -2.49,0.023 c -29.75,0.617 -59.49,0.957 -89.21,1.297 -22.14,0.273 -44.31,0.523 -66.48,0.883 -30.07,0.508 -53.06,20.32 -58.58,50.457 -3.41,18.57 -4.26,36.07 -2.56,52.031 11.78,110.07 11.15,223.41 10.62,323.43 -0.35,64.33 0.26,128.68 0.89,193 0.52,55.73 1.06,111.47 0.97,167.2 -0.05,31.84 -1.31,64.5 -2.54,96.09 -1.12,28.83 -2.22,57.66 -2.51,86.5 -0.76,77.71 -0.76,160.86 0,269.59 0.74,104.1 2.14,208.23 3.86,312.33 0.77,46.15 2.06,92.31 3.36,138.46 l 1.78,68.32 c 0.05,7.47 0.16,14.96 1.01,22.34 4.26,37.02 23.79,56.95 59.7,60.94 43.67,4.86 82.97,7.9 120.13,9.31 20.5,0.79 41.04,0.89 61.63,0.76 31.88,0 61.94,-0.04 91.83,2.85 17.72,1.71 34.2,0.97 50.12,0.22 11.16,-0.51 21.72,-0.96 31.86,-0.55 17.3,0.71 34.6,1.56 51.89,2.44 41.29,2.04 83.99,4.2 126.34,4.37 67.79,0.3 135.88,-2.47 194.44,-5.11 45.41,-2.05 76.06,-30.47 81.98,-76.02 6.26,-48.14 -3.61,-93.44 -15.15,-139.37" /><path
         id="path24"
         style="fill:#100f0d;fill-opacity:1;fill-rule:nonzero;stroke:none"
         d="m 1017.86,1842.07 c -0.95,32.81 17.83,56.1 49.01,60.76 4.99,0.74 9.99,1.86 14.99,2.94 13.49,2.89 28.77,6.17 45.34,4.89 60.36,-4.69 122.53,-3.9 182.66,-3.14 27.8,0.36 55.62,0.7 83.38,0.56 26.25,0.25 52.6,2.35 80.5,5.01 11.53,1.09 23.08,2.17 34.63,3.09 3.62,0.27 7.23,0.87 10.84,1.46 6.94,1.1 14.79,2.35 23.49,2.42 64.95,0.52 129.91,0.76 194.88,0.99 l 41.71,0.15 c 1.37,0 2.67,0 3.93,0 6.41,0 11.67,-0.15 16.8,-0.85 38.22,-5.13 60.89,-27.14 67.43,-65.44 2.28,-13.39 2.47,-26.67 2.59,-37.36 l 0.75,-49.54 c 1.01,-63.29 2.04,-128.71 0.15,-193.55 -1.16,-40.03 0.83,-81.5 2.75,-121.59 1.21,-25.17 2.42,-50.37 2.91,-75.54 0.65,-31.95 0.27,-64.21 -0.09,-95.4 -0.16,-15.01 -0.33,-30.02 -0.4,-45.03 l -0.16,-9.33 c -0.15,-6.78 -0.32,-13.17 0.33,-18.33 11,-86.27 11.36,-173.35 11.71,-257.549 l 0.16,-30.832 c 0.79,-128.98 2.11,-257.988 3.77,-386.98 0.58,-45.379 1.6,-90.75 2.59,-136.137 0.76,-34.953 1.52,-69.91 2.11,-104.871 0.64,-40.469 0.8,-80.941 0.93,-121.422 l 0.07,-18.609 c 0.05,-10.289 0.07,-21.442 -2.21,-33.199 -9.95,-51.1996 -28.75,-67.7504 -80.44,-70.8285 -119.61,-7.1133 -247.63,-14.1328 -402.89,-22.1211 -49.18,-2.5391 -89.05,-3.4726 -125.51,-3.0117 -54.32,0.75 -107.15,3.5 -151.67,6.1094 -41.46,2.4218 -64.9,22.8828 -71.66,62.5507 -7.09,41.6212 -6.26,85.6092 2.56,134.4802 5.43,29.981 29.75,49.141 61.09,48.211 20.19,-0.422 40.41,-0.468 60.62,-0.492 33.17,-0.059 67.45,-0.129 101.51,-1.93 77.83,-4.097 157.52,1.192 234.59,6.332 l 7.61,0.5 c 8.3,0.551 16.62,1.02 24.92,1.5 20.49,1.161 39.87,2.27 59.19,4.481 l 1.1,0.137 0.24,1.679 c 1.82,13.024 2.84,26.004 2.99,38.594 0.87,75.07 1.59,150.148 1.82,225.238 0.18,53.582 -0.36,107.16 -0.95,160.711 -0.02,1.008 -0.17,2.289 -0.45,3.75 -10.2,0.141 -19.92,-0.14 -29.07,-0.879 -32.61,-2.601 -65.2,-5.343 -97.8,-8.093 -37.04,-3.129 -74.08,-6.258 -111.13,-9.18 -18.2,-1.438 -38.79,-3.047 -59.72,-0.848 -39.58,4.188 -64.46,29.071 -68.27,68.27 -3.68,37.801 -5.84,77.238 -6.62,120.609 -0.7,37.969 22.68,66.129 59.52,71.762 l 3.01,0.469 c 17.15,2.629 34.88,5.339 53.26,6.281 53.17,2.707 106.39,5.07 159.59,7.43 l 60.62,2.718 c 11.44,2.012 22.86,4.172 29.44,6 0.34,5.95 0.22,15.422 0.13,24.05 -0.74,62.38 -0.56,124.75 -0.41,178.2 l 0.12,55.52 -21.79,365.89 c -0.83,15.22 -1.64,29.73 -3.01,44.1 -27.12,0.73 -52.34,0.76 -76.88,0.12 -68.59,-1.81 -137.18,-3.77 -205.79,-5.72 -67.39,-1.9 -134.8,-3.81 -202.19,-5.61 -18.53,-0.45 -75.05,-1.99 -80.61,69.71 -2.52,32.36 -3.15,64.91 -3.73,96.39 -0.25,13.08 -0.49,26.16 -0.89,39.35" /></g></g></svg>