<?xml version="1.0" encoding="utf-8"?>
<!-- Generator: Adobe Illustrator 26.2.1, SVG Export Plug-In . SVG Version: 6.00 Build 0)  -->
<svg version="1.1" id="Layer_1" xmlns="http://www.w3.org/2000/svg" xmlns:xlink="http://www.w3.org/1999/xlink" x="0px" y="0px"
	 viewBox="0 0 516.97 269.21" style="enable-background:new 0 0 516.97 269.21;" xml:space="preserve">
<style type="text/css">
	.st0{fill:#556A5B;}
	.st1{clip-path:url(#SVGID_00000116940447949022802240000017247582320921587379_);}
	.st2{fill:#212027;}
	.st3{clip-path:url(#SVGID_00000015320952406591959610000003128975836208488369_);}
	.st4{fill:#96AB8C;}
	.st5{fill:#F2F2F2;}
	.st6{fill:#0C4335;}
	.st7{fill:#C4BDA2;}
	.st8{fill:#173628;}
	.st9{clip-path:url(#SVGID_00000137853503338035838680000005230527284407692473_);}
	.st10{fill:#FFFFFF;}
	.st11{clip-path:url(#SVGID_00000000221726558062404680000016142768475492148123_);}
	.st12{clip-path:url(#SVGID_00000111891749191441523310000018118057436660423854_);}
	.st13{clip-path:url(#SVGID_00000124855358529180939330000018253072857540981125_);}
	.st14{clip-path:url(#SVGID_00000123420299376297689760000003526954344070403259_);}
	.st15{fill:#F5F4F2;}
	.st16{fill:none;stroke:#000000;stroke-width:11;stroke-linecap:round;stroke-miterlimit:10;}
</style>
<g>
	<g>
		<g>
			<path d="M196.52,1.71c2.57,1.77,3.54,5.1,2.32,7.97c-0.36,0.85-30.6,72.05-46.38,114.36c2.84-0.29,5.69-0.57,8.57-0.84
				c3.62-0.35,6.81,2.31,7.15,5.91c0.34,3.61-2.31,6.81-5.91,7.15c-4.97,0.47-9.9,0.97-14.75,1.5c-0.75,2.19-1.43,4.2-2,6.03
				c-10.75,33.91-15.47,53.8-15.51,54.06c-0.83,3.42-4.36,5.52-7.89,4.73c-3.53-0.79-5.71-4.21-4.88-7.81
				c0.19-0.82,4.86-20.51,15.78-54.95c0.04-0.14,0.09-0.27,0.13-0.41c-16.97,2.05-32.84,4.34-46.78,6.55
				c-28.19,39.1-54.55,72.83-76.51,86.04c-1.05,0.79-2.1,1.05-3.42,1.05c-2.1,0-4.2-1.05-5.52-3.15c-1.84-3.15-0.79-7.09,2.1-8.93
				c18.06-10.83,41.02-39.28,64.94-71.97c-22.49,3.87-36.71,6.91-37.09,6.97c-0.53,0.1-0.79,0.15-1.31,0.15
				c-3.15,0-5.78-2.1-6.3-5.18c-0.79-3.54,1.31-7.03,4.99-7.79c0.3-0.08,20.34-4.37,50.67-9.28c5.56-7.76,11.14-15.63,16.68-23.46
				l2.57-3.63C136.61,52.51,187.74,2.89,188.25,2.4C190.49,0.23,193.95-0.06,196.52,1.71L196.52,1.71z M137.89,125.63
				c9.02-24.84,24.35-62.38,35.45-89.09c-18.07,19.33-43.26,47.87-64.48,77.81l-2.57,3.62c-3.1,4.38-6.2,8.74-9.27,13.06
				C109.62,129.17,123.41,127.31,137.89,125.63L137.89,125.63z"/>
		</g>
		<g>
			<path d="M292.61,164.78c3.17,1.75,4.33,5.73,2.58,8.91c-10,18.16-22.8,20.37-30.72,16.75c-4.37-2-8.14-6.06-10.44-11.97
				c-1.38,2.38-2.76,4.49-4.11,6.2c-9.41,11.87-21.16,18.44-31.09,18.44c-3.02,0.26-5.87-0.53-8.44-1.84
				c-2.45-1.28-6.67-4.23-8.47-10.52c-8,8.01-16.43,12.36-23.65,12.36c-2.5,0-4.85-0.53-6.99-1.58c-3.79-1.84-11.94-8.35-6.68-27.62
				c2.37-9.11,6.91-17.08,13.66-29.13l3.32-5.94c1.76-3.17,5.75-4.31,8.92-2.55c3.17,1.76,4.31,5.75,2.55,8.92l-3.34,5.98
				c-6.28,11.21-10.43,18.61-12.48,26.16c-2.25,8.25-0.95,12.07-0.01,12.54c2.2,1.12,10.55-1.74,19.86-13.42
				c2.78-3.49,6.7-9.35,10.53-15.54c2.25-4.61,5.03-9.57,8.4-15.56c1.15-2.05,2.37-4.22,3.66-6.54c1.76-3.17,5.76-4.31,8.92-2.55
				c2.15,1.2,3.37,3.42,3.38,5.72c0.02,0.88-0.14,1.77-0.5,2.64c-2.13,5.14-7.09,14.09-12.32,22.58c-1.71,3.57-3.01,6.82-3.91,10.12
				c-1.7,6.24-1.27,11.04,1.09,12.25c3.85,1.95,14.09-1.53,23.34-13.12c4.15-5.2,9.84-17.52,16.92-36.62
				c1.26-3.4,5.03-5.13,8.43-3.87c3.4,1.26,5.13,5.03,3.87,8.43c-7.26,19.6-3.67,31.92,1.05,34.08c2.94,1.34,8.5-1.57,13.78-11.14
				C285.44,164.18,289.43,163.02,292.61,164.78L292.61,164.78z"/>
		</g>
		<g>
			<path d="M375.6,163.73c2.98,2.06,3.74,6.14,1.68,9.12c-13.25,19.23-25.78,30.26-37.91,30.26c-1.78,0-3.54-0.26-5.25-0.79
				c-0.17,0-0.35,0-0.51,0c-0.81-0.53-7.96-3.15-11.11-11.48c-0.12-0.32-0.24-0.65-0.35-0.98c-8.32,8.34-17.44,12.98-25.34,12.98
				c-2.83,0-5.5-0.53-7.92-1.84c-4-2.1-12.41-8.61-7.42-27.28c3.15-11.61,11.17-20.57,16.86-26.3
				c11.03-11.11,24.98-15.29,34.7-10.42c1.48,0.74,3.74,2.18,5.71,4.68c0.51-0.97,1.03-1.96,1.55-2.94
				c1.69-3.21,5.66-4.44,8.86-2.75c3.21,1.69,4.44,5.65,2.76,8.86c-3.86,7.34-7.57,14.34-10.37,19.63
				c-1.71,3.23-3.08,5.82-3.95,7.46c-3.14,5.97-4.12,10.89-2.85,14.21c0.87,2.27,2.69,3.38,3.25,3.67
				c5.83,1.21,16.11-6.45,28.49-24.41C368.54,162.42,372.62,161.67,375.6,163.73L375.6,163.73z M294.83,189.3
				c2.86,1.44,12.33-1.01,22.26-13.45c2.98-3.73,7.49-10.48,12.08-18.06c0.08-0.14,0.17-0.28,0.27-0.41
				c0.38-2.7,0.55-7.23-2.28-8.65c-0.83-0.41-1.86-0.62-3.05-0.62c-4.32,0-10.69,2.76-16.45,8.56
				c-5.04,5.08-11.13,11.99-13.44,20.51C292.27,184.3,293.17,188.46,294.83,189.3L294.83,189.3z"/>
		</g>
		<g>
			<path d="M460.76,0.75c3.21,1.69,4.44,5.65,2.75,8.86L386.26,156.5c4.89-2.79,17.41-10.56,32.48-24.74
				c2.64-2.48,6.79-2.36,9.27,0.29c2.48,2.64,2.35,6.79-0.29,9.27c-15.06,14.16-27.68,22.34-33.85,25.94
				c1.07,8.74,4.31,21.9,14.09,21.9c8.83,0,20.75-9.59,29.66-23.86c1.92-3.08,5.97-4.01,9.04-2.09c3.07,1.92,4.01,5.97,2.09,9.04
				c-11.74,18.8-26.99,30.06-40.79,30.06c-7.29,0-24.18-3.46-27.32-35.16l-16.7,31.75c-1.05,2.1-3.42,3.42-5.78,3.42
				c-1.05,0-2.1-0.26-2.89-0.79c-3.15-1.58-4.47-5.66-2.89-8.86L451.9,3.51C453.59,0.3,457.56-0.93,460.76,0.75L460.76,0.75z"/>
		</g>
		<g>
			<path d="M475.88,134.93c10.34,0,17.58,6.27,18.03,15.59c0.01,0.19,0.02,0.41,0.02,0.63c0,6.81-4.56,16.45-17.37,23.1
				c-7.21,3.74-18.32,7.73-28.71,8.2c1.4,3.94,5.37,5.89,8.8,6.85c19.85,5.52,39.57-11.36,48.36-24.07
				c2.06-2.98,6.15-3.72,9.13-1.66c2.98,2.06,3.73,6.15,1.67,9.13c-14.25,20.6-34.11,30.68-51.62,30.68
				c-3.92,0-7.65-0.53-11.05-1.31c-11.85-3.41-19.03-11.88-19.03-22.76C434.11,160.33,454.82,134.92,475.88,134.93L475.88,134.93z
				 M475.88,148.05c-9.9,0-20.96,10.58-25.91,21.08c7.52-0.89,15.47-3.89,20.54-6.52c8.44-4.38,10.29-9.75,10.29-11.45
				C480.76,150.22,480.66,148.05,475.88,148.05L475.88,148.05z"/>
		</g>
	</g>
	<g>
		<path d="M251.71,269.21c-27.64,0-61.96-4.9-97.8-21.95c-56.15-26.7-89.23-25.91-146.68-13.71c-2.97,0.63-5.89-1.27-6.52-4.24
			c-0.63-2.97,1.27-5.89,4.24-6.52c58.86-12.5,95.01-13.37,153.69,14.53c89.24,42.44,169.73,6.95,170.54,6.59
			c2.76-1.26,6.03-0.03,7.28,2.74c1.25,2.77,0.03,6.03-2.74,7.28c-0.87,0.4-21.8,9.75-54.48,13.65
			C271.13,268.55,261.87,269.21,251.71,269.21z"/>
	</g>
	<g>
		<g>
			<path d="M252.99,77.05l-0.04,1.04c-0.07,1.99-0.15,4.05-0.35,6.07c-0.24,2.44-0.57,4.54-1.01,6.43
				c-0.73,3.13-1.87,5.95-3.41,8.38c-0.12,0.19-0.27,0.43-0.5,0.63l-0.06,0.05c-1.73,1.51-3.52,3.07-5.97,3.75
				c-0.92,0.25-1.9,0.38-2.95,0.38c-0.57,0-1.17-0.04-1.79-0.11c-1.6-0.19-3.09-0.75-4.45-1.33c-1.53-0.65-2.5-1.86-3.29-2.83
				c-1.15-1.43-1.97-3.01-2.62-4.37c-0.87-1.82-1.37-3.77-1.77-5.45c-0.83-3.47-1.23-6.4-1.25-9.21c0-0.69,0-1.38,0-2.08l0-0.94
				c-0.06-3.07,0.11-6.27,0.51-9.53c0.06-0.46,0.11-0.93,0.16-1.39c0.18-1.65,0.38-3.36,0.76-5.04c0.36-1.59,0.76-2.87,1.25-4.02
				c1.16-2.73,2.52-5.58,4.67-7.95c1.31-1.45,2.96-3.02,5.26-3.64c3.84-1.05,7.27-0.56,10.2,1.46c1.02,0.7,1.86,1.59,2.49,2.64
				c1.55,2.59,2.4,4.86,2.66,7.13l0.21,1.81c0.13,1.12,0.27,2.25,0.38,3.37c0.07,0.66,0.07,1.4-0.41,1.98
				c-0.48,0.57-1.2,0.68-1.77,0.72c-1.3,0.08-2.63,0.14-4.06,0.19c-1.26,0.05-1.88-0.51-2.03-1.79c-0.09-0.73-0.17-1.46-0.25-2.2
				c-0.12-1.05-0.23-2.1-0.37-3.14c-0.1-0.79-0.22-1.42-0.39-1.97c-0.18-0.59-0.43-1.01-0.8-1.3c-0.92-0.74-1.75-0.86-2.86-0.42
				c-1.55,0.62-2.65,1.8-3.45,3.71c-0.53,1.26-0.9,2.65-1.26,3.99c-0.41,1.55-0.74,3.09-1,4.39c-0.67,3.34-0.9,6.48-0.69,9.59
				c0.15,2.29,0.25,4.17,0.3,5.91c0,0.19,0.01,0.37,0.01,0.56c0.01,0.76,0.02,1.47,0.24,2.11c0.22,0.65,0.24,1.28,0.25,1.84
				c0.01,0.39,0.02,0.75,0.09,1.07c0.35,1.53,0.97,2.99,1.57,4.4c0.37,0.86,0.97,1.61,1.74,2.16c1.27,0.91,2.26,1.08,3.32,0.56
				c0.37-0.18,0.66-0.5,0.97-0.92c1-1.34,1.58-3.02,1.83-5.29c0.29-2.59,0.54-5.24,0.78-7.79c0.1-1.02,0.19-2.04,0.29-3.06
				c0.16-1.65,0.94-2.48,2.53-2.68c0.31-0.04,0.6-0.04,0.86-0.04c0.13,0,0.26,0,0.39-0.01l0.53-0.03c0.65-0.03,1.31-0.06,1.96-0.11
				c0.68-0.05,1.45-0.03,2,0.5C252.96,75.74,253.01,76.47,252.99,77.05z"/>
		</g>
		<g>
			<path d="M272.38,84.68c-0.48,1.82-0.98,3.63-1.48,5.44c-0.41,1.48-0.82,2.96-1.21,4.45c-0.36,1.36-0.7,2.76-1.03,4.11l-0.35,1.42
				c-0.03,0.1-0.04,0.2-0.05,0.31c-0.03,0.18-0.05,0.36-0.1,0.53c-0.31,1.21-0.76,1.84-2.31,1.81c-1.73-0.05-3.45-0.19-4.92-0.32
				c-0.73-0.06-1.15-0.4-1.37-0.67c-0.23-0.27-0.48-0.76-0.4-1.51c0.03-0.29,0.11-0.55,0.18-0.76c0.02-0.07,0.04-0.14,0.06-0.21
				l4.42-16.44c0.85-3.18,1.73-6.47,2.63-9.7c1.24-4.45,2.57-9.11,4.08-14.24c0.73-2.49,1.5-5,2.25-7.43
				c0.31-1.01,0.62-2.02,0.93-3.03c0.04-0.15,0.1-0.29,0.15-0.43c0.04-0.12,0.09-0.24,0.12-0.36c0.26-0.88,0.93-1.47,1.89-1.66
				c0.36-0.07,0.84-0.16,1.34-0.18c0.46-0.01,0.92-0.02,1.38-0.02c0.54,0,1.09,0,1.63-0.03c1.49-0.07,2.65,0.75,3.18,2.23
				c1.48,4.17,2.43,7.45,3.08,10.63c0.95,4.63,2.09,9.45,3.39,14.32c0.6,2.24,1.09,4.53,1.57,6.74c0.24,1.1,0.47,2.2,0.72,3.29
				c0.35,1.55,0.77,3.18,1.28,4.98c0.93,3.29,1.6,6.64,2.18,9.77c0.04,0.2,0.08,0.39,0.12,0.59c0.09,0.42,0.18,0.85,0.23,1.3
				c0.06,0.54,0.06,1.13-0.02,1.73c-0.08,0.65-0.66,1.17-1.16,1.32c-0.4,0.12-0.84,0.19-1.4,0.22c-0.25,0.01-0.51,0.02-0.76,0.02
				l-1.42,0.03h-1.56c0,0,0,0,0,0c-0.99,0-1.7-0.58-1.95-1.58c-0.17-0.69-0.36-1.38-0.54-2.07c-0.29-1.1-0.58-2.21-0.85-3.32
				c-0.19-0.81-0.35-1.62-0.5-2.41c-0.1-0.52-0.2-1.04-0.31-1.56c-0.18-0.84-0.39-1.77-0.67-2.91c-0.29-1.19-0.52-2.4-0.88-3.58
				c-0.31-1.02-0.65-1.88-0.78-2.39c-0.07-0.26-0.11-0.49-0.16-0.69c-0.03-0.14-0.07-0.3-0.09-0.42c-0.24-0.03-0.66-0.05-1.11-0.07
				c-3.04-0.13-6.12-0.26-8.44-0.05c-0.09,0.01-0.19,0.02-0.28,0.03c-0.03,0.11-0.06,0.24-0.08,0.33L272.38,84.68z M281.65,74.21
				l-1.43-5.55c-0.33-1.48-0.66-2.96-0.99-4.45c-0.09-0.41-0.16-0.82-0.24-1.24c-0.07-0.41-0.14-0.82-0.24-1.23
				c-0.03-0.13-0.06-0.27-0.09-0.4c-0.19,0.6-0.37,1.21-0.56,1.81c-0.78,2.57-2.37,8.02-3.13,10.6c-0.04,0.15-0.08,0.3-0.12,0.48
				c0.06,0,0.13,0,0.19,0c1.55-0.06,4.81,0.1,6.36,0.03l0.2-0.01c0.01,0,0.03,0,0.04,0C281.65,74.23,281.65,74.22,281.65,74.21z"/>
		</g>
		<g>
			<path d="M331.97,52c-0.49,1.96-2.14,1.77-2.68,1.71c-2.65-0.31-5.38-0.24-8.03-0.17l-0.22,0.01c-1.76,0.04-3.53,0.01-5.25-0.01
				l-1.17-0.02c-0.23,0-0.53-0.01-0.75,0c0,0.2,0,0.47,0,0.73c0.06,4,0.07,7.27,0.01,10.34c0,0.2,0,0.35,0,0.45
				c0.09,0,0.21,0,0.37-0.02c0.7-0.05,1.4-0.17,2.14-0.31c0.31-0.06,0.62-0.11,0.92-0.16c0.18-0.03,0.37-0.07,0.55-0.1
				c0.38-0.08,0.77-0.15,1.19-0.19c1.12-0.09,2.03,0.5,2.39,1.54l0.04,0.11c0.13,0.37,0.27,0.79,0.32,1.25
				c0.09,0.92,0.16,1.84,0.23,2.77l0.06,0.78c0.08,1.04-0.56,1.82-1.59,1.93c-0.42,0.04-0.98,0.09-1.54,0.04
				c-1.43-0.12-2.85,0.05-4.35,0.23c-0.27,0.03-0.53,0.06-0.8,0.09c-0.19,1.8-0.22,3.59-0.23,5.27c0,0.77,0,1.54,0,2.31l0,1.06
				c-0.02,2.59,0.07,5.16,0.26,7.64c0.03,0.38,0,0.75-0.02,1.07l-0.02,0.24c-0.21,3.49-0.35,6.4,0.06,9.37
				c0.08,0.6,0.07,1.11-0.05,1.56c-0.2,0.8-0.65,1.85-2.25,1.85c-0.03,0-0.05,0-0.08,0c-0.93-0.02-1.86-0.03-2.79-0.04
				c-0.69-0.01-1.39-0.02-2.08-0.03c-0.94-0.02-1.66-0.64-1.83-1.58c-0.11-0.58-0.13-1.13-0.08-1.63c0.37-3.44,0.35-6.99,0.33-10.12
				c-0.01-2.01,0.01-4.03,0.03-6.04c0.02-1.74,0.03-3.49,0.03-5.23c0-1-0.04-2.02-0.08-3.01c-0.04-0.9-0.07-1.8-0.08-2.71
				c-0.02-2.43-0.02-5.03,0-8.43c0.02-3.26,0.07-6.51,0.12-9.77c0.02-1.44,0.06-2.89,0.11-4.33l0.05-2.14c0-0.23,0-0.47,0.03-0.7
				c0.13-1.16,0.74-1.78,1.87-1.91c1.37-0.15,2.6-0.25,3.76-0.29c0.64-0.02,1.28-0.03,1.93-0.02c1,0,1.94,0,2.87-0.09
				c0.55-0.05,1.07-0.03,1.57-0.01c0.35,0.02,0.68,0.03,1,0.02c0.54-0.02,1.08-0.05,1.62-0.08c1.29-0.06,2.63-0.13,3.95-0.14
				c2.12-0.01,4.25,0.08,6.08,0.16c1.42,0.06,2.38,0.95,2.56,2.38C332.64,49.15,332.33,50.57,331.97,52z"/>
		</g>
		<g>
			<path d="M367.17,101.87c0.03,1.03-0.56,1.75-1.53,1.9c-0.16,0.02-0.31,0.06-0.47,0.09c-0.42,0.09-0.9,0.19-1.42,0.15
				c-1.89-0.15-3.83-0.12-5.71-0.1c-0.87,0.01-1.74,0.02-2.61,0.02c-0.82,0.01-1.65,0.07-2.52,0.16c-0.36,0.03-0.72,0.07-1.08,0.1
				c-0.11,0.01-0.23,0.03-0.34,0.05c-0.22,0.03-0.46,0.07-0.73,0.08c-2.03,0.02-4.06,0.02-6.1,0.03l-1.3,0c-0.04,0-0.08,0-0.12,0
				c-0.2,0-0.37,0-0.53-0.03c-1.2-0.16-1.91-0.85-2.11-2.05c-0.07-0.42-0.08-0.83-0.08-1.17l-0.02-1.55c-0.03-1.98-0.06-4.03,0-6.06
				c0.04-1.25-0.03-2.55-0.09-3.8c-0.04-0.79-0.08-1.58-0.09-2.36c-0.02-1-0.01-2.01,0-2.98c0-0.47,0.01-0.94,0.01-1.41l0.01-0.29
				c0-0.21,0.01-0.41-0.01-0.57c-0.34-2.7-0.36-5.42-0.37-8.06l0-0.96c-0.03-4.04-0.07-8.07-0.12-12.11
				c-0.02-1.42-0.05-2.84-0.08-4.26c-0.02-1.09-0.05-2.19-0.07-3.28c-0.02-1.27-0.03-2.53-0.03-3.8l0-0.58c0-0.32,0-0.67,0.07-1.04
				c0.31-1.6,0.9-2.12,2.52-2.22c3.74-0.22,7.75-0.44,12.6-0.69c1.54-0.08,2.79-0.11,3.93-0.09c1.7,0.02,3.35,0.11,4.74,0.19
				c1.3,0.08,2.03,0.72,2.24,1.96c0.22,1.3,0.2,2.68-0.08,4.21c-0.17,0.94-0.93,1.54-1.91,1.51c-0.63-0.01-1.26-0.01-1.9-0.02
				c-1.04,0-2.11,0-3.18-0.06c-2.43-0.13-4.93,0.04-7.34,0.2l-0.24,0.02c-0.26,0.02-0.52,0.03-0.78,0.05
				c-0.64,0.04-1.25,0.07-1.85,0.14c-0.01,0-0.02,0-0.03,0c0,0.02,0,0.03-0.01,0.05c-0.06,0.41-0.09,0.81-0.09,1.21
				c-0.03,2.35-0.05,4.7-0.06,7.05c0,1.68,0.01,3.35,0.03,5.03c0,0.03,0,0.07,0.01,0.12c0.32,0,0.62,0,0.91-0.03
				c1.02-0.08,2.04-0.17,3.06-0.25c1.16-0.1,2.32-0.2,3.48-0.29c0.57-0.04,1.21-0.1,1.87-0.03c1.24,0.13,2.02,0.91,2.14,2.14
				c0.12,1.18,0.18,2.42,0.21,3.77c0.02,1.19-0.71,2.07-1.86,2.24l-0.09,0.01c-0.54,0.08-1.09,0.17-1.67,0.2
				c-1.66,0.08-3.33,0.16-4.99,0.23l-1.9,0.08c-0.36,0.06-0.72,0.13-0.92,0.19c-0.01,0.19-0.01,0.48,0,0.75
				c0.02,1.95,0.02,3.9,0.01,5.58l0,1.74l0.68,11.45c0.03,0.48,0.05,0.93,0.09,1.38c0.85,0.02,1.64,0.02,2.41,0
				c2.15-0.06,4.29-0.12,6.44-0.18c2.11-0.06,4.22-0.12,6.33-0.18c0.58-0.01,2.35-0.06,2.52,2.18c0.08,1.01,0.1,2.03,0.12,3.02
				C367.15,101.05,367.16,101.46,367.17,101.87z"/>
		</g>
	</g>
	<g>
		<g>
			<path d="M369.8,262.61c0.02,0.56-0.3,0.95-0.83,1.03c-0.08,0.01-0.17,0.03-0.25,0.05c-0.23,0.05-0.49,0.1-0.77,0.08
				c-1.03-0.08-2.08-0.07-3.1-0.05c-0.47,0.01-0.95,0.01-1.42,0.01c-0.45,0-0.89,0.04-1.37,0.08c-0.2,0.02-0.39,0.04-0.59,0.05
				c-0.06,0-0.12,0.02-0.18,0.03c-0.12,0.02-0.25,0.04-0.4,0.04c-1.1,0.01-2.21,0.01-3.31,0.02l-0.71,0c-0.02,0-0.05,0-0.07,0
				c-0.11,0-0.2,0-0.29-0.02c-0.65-0.09-1.03-0.46-1.14-1.11c-0.04-0.23-0.04-0.45-0.04-0.63l-0.01-0.84
				c-0.02-1.07-0.04-2.19,0-3.29c0.02-0.68-0.01-1.38-0.05-2.07c-0.02-0.43-0.04-0.86-0.05-1.28c-0.01-0.54,0-1.09,0-1.62
				c0-0.25,0.01-0.51,0.01-0.77l0-0.16c0-0.12,0.01-0.22-0.01-0.31c-0.19-1.47-0.19-2.95-0.2-4.38l0-0.53
				c-0.01-2.19-0.04-4.38-0.06-6.57c-0.01-0.77-0.03-1.54-0.04-2.31c-0.01-0.59-0.03-1.19-0.04-1.78c-0.01-0.69-0.01-1.38-0.02-2.06
				l0-0.32c0-0.18,0-0.37,0.04-0.56c0.17-0.87,0.49-1.15,1.37-1.2c2.03-0.12,4.21-0.24,6.85-0.38c0.84-0.04,1.51-0.06,2.13-0.05
				c0.92,0.01,1.82,0.06,2.58,0.1c0.7,0.04,1.1,0.39,1.22,1.06c0.12,0.71,0.11,1.45-0.04,2.28c-0.09,0.51-0.51,0.84-1.04,0.82
				c-0.34-0.01-0.69-0.01-1.03-0.01c-0.56,0-1.15,0-1.72-0.03c-1.32-0.07-2.68,0.02-3.98,0.11l-0.13,0.01
				c-0.14,0.01-0.28,0.02-0.42,0.03c-0.35,0.02-0.68,0.04-1.01,0.08c-0.01,0-0.01,0-0.02,0c0,0.01,0,0.02,0,0.03
				c-0.03,0.22-0.05,0.44-0.05,0.66c-0.01,1.28-0.03,2.55-0.03,3.83c0,0.91,0.01,1.82,0.02,2.73c0,0.02,0,0.04,0.01,0.06
				c0.17,0,0.34,0,0.49-0.01c0.55-0.04,1.11-0.09,1.66-0.14c0.63-0.05,1.26-0.11,1.89-0.16c0.31-0.02,0.66-0.05,1.01-0.01
				c0.67,0.07,1.1,0.49,1.16,1.16c0.06,0.64,0.1,1.31,0.11,2.05c0.01,0.64-0.39,1.12-1.01,1.22l-0.05,0.01
				c-0.29,0.04-0.59,0.09-0.91,0.11c-0.9,0.05-1.81,0.09-2.71,0.13l-1.03,0.04c-0.19,0.04-0.39,0.07-0.5,0.1
				c-0.01,0.1,0,0.26,0,0.41c0.01,1.06,0.01,2.12,0.01,3.03l0,0.94l0.37,6.21c0.01,0.26,0.03,0.51,0.05,0.75
				c0.46,0.01,0.89,0.01,1.31,0c1.17-0.03,2.33-0.06,3.5-0.1c1.14-0.03,2.29-0.06,3.43-0.1c0.32-0.01,1.28-0.03,1.37,1.19
				c0.04,0.55,0.05,1.1,0.06,1.64C369.79,262.17,369.79,262.39,369.8,262.61z"/>
		</g>
		<g>
			<path d="M388.7,258.02c-0.51,2.25-1.95,3.7-2.54,4.21c-1.28,1.12-3.84,1.41-5.24,1.41c-0.04,0-0.08,0-0.12,0
				c-0.26,0-2.42-0.24-3.77-1.09c-0.34-0.21-0.64-0.46-0.93-0.69c-0.96-0.79-1.47-1.84-1.95-2.93c-0.54-1.22-0.79-2.62-0.77-4.28
				c-0.01-0.38,0.09-1.51,0.26-2.42c0.18-0.94,0.62-1.76,1.05-2.55l0.07-0.13c0.27-0.49,0.76-0.71,1.33-0.59
				c1.15,0.26,2.1,0.85,2.83,1.75c0.31,0.38,0.37,0.85,0.16,1.29l-0.05,0.1c-0.08,0.18-0.17,0.35-0.26,0.52
				c-0.64,1.11-0.67,2.18-0.57,3.14c0.04,0.37,0.15,0.77,0.31,1.22c0.26,0.77,0.52,1.34,0.93,1.62c0.47,0.33,0.97,0.45,1.54,0.6
				l0.06,0.02c0.54,0.14,1.32-0.17,1.71-0.54c0.42-0.4,0.72-0.85,0.91-1.37c0.51-1.39,0.49-2.81-0.08-4.34
				c-0.18-0.48-0.47-0.93-0.77-1.41c-0.12-0.18-0.24-0.37-0.35-0.56c-0.51-0.85-1.13-1.6-1.79-2.4c-0.43-0.52-0.87-1.07-1.28-1.63
				c-0.28-0.39-0.57-0.78-0.85-1.17c-0.61-0.83-1.24-1.69-1.82-2.56c-0.92-1.39-1.39-2.82-1.39-4.26c0-2.04,0.64-3.69,1.92-4.88
				c0.61-0.57,0.8-0.72,1.46-1.16c0.23-0.15,1.02-0.46,1.24-0.51c0.56-0.14,2.24-0.3,3.33-0.1c1.63,0.3,2.81,0.99,3.6,2.1
				c0.91,1.26,1.46,2.6,1.7,4.08c0.21,1.28,0.33,1.68,0.25,2.64c-0.1,1.23-0.33,1.57-1.7,1.51c-0.68-0.03-1.49-0.07-2.3-0.13
				c-0.27-0.02-0.6-0.08-0.83-0.35c-0.22-0.27-0.22-0.6-0.2-0.86c0.03-0.3,0.02-0.35,0.06-0.65c0.04-0.3,0-0.21,0.03-0.51
				c0.08-0.76,0-1.23-0.15-1.87c-0.14-0.62-0.45-1.03-0.98-1.3c-0.56-0.28-1.19-0.2-1.64,0.22c-0.61,0.56-0.85,1.19-0.76,1.97
				c0.09,0.83,0.33,1.49,0.76,2.1c0.51,0.72,1.03,1.38,1.61,2.01c0.5,0.55,0.96,1.14,1.41,1.71c0.24,0.31,0.49,0.62,0.74,0.92
				c0.31,0.38,0.64,0.77,0.99,1.13c1.32,1.36,2.29,3.02,2.87,4.93C389.41,254.19,389.09,256.27,388.7,258.02z"/>
		</g>
		<g>
			<path d="M408.57,235.37c0.01,0.65-0.38,1.06-1.04,1.09c-0.24,0.01-0.48,0.01-0.71,0l-0.15,0c-0.34-0.01-0.67-0.02-1.01-0.03
				c-0.68-0.02-1.39-0.04-2.08-0.03c-0.17,0-0.59,0-0.73,0.05c-0.03,0.1-0.05,0.34-0.04,0.73c0,0.61-0.03,1.22-0.06,1.81
				c-0.02,0.4-0.04,0.81-0.05,1.21c-0.04,1.46-0.05,2.74-0.06,3.92c0,0.72,0.01,1.44,0.01,2.15c0.01,0.68,0.02,1.37,0.02,2.05
				c0,1.29-0.01,2.58-0.02,3.87l-0.01,1.53c0,0.61-0.01,1.21-0.02,1.82c-0.01,1.46-0.03,2.98-0.02,4.47c0,0.46,0.05,0.93,0.11,1.42
				c0.03,0.24,0.05,0.47,0.07,0.71c0.02,0.19,0.05,0.54-0.19,0.81c-0.24,0.28-0.59,0.3-0.79,0.31c-0.91,0.06-1.83,0.11-2.74,0.15
				c-0.07,0-0.13,0-0.2,0c-0.13,0-0.26-0.01-0.37-0.03c-0.44-0.06-0.76-0.4-0.78-0.84c-0.02-0.44-0.04-0.84-0.04-1.21
				c0-0.67,0-1.34,0-1.9l0-0.53c-0.18-1.54-0.12-2.94-0.06-4.28c0.03-0.61,0.05-1.19,0.05-1.78l0-0.91c0-1.35,0.01-2.75,0.06-4.13
				c0.04-1.11,0.02-2.25,0-3.34c-0.01-0.58-0.02-1.16-0.02-1.74c0-0.4-0.02-0.8-0.03-1.2c-0.02-0.48-0.04-0.97-0.03-1.46
				c0.01-0.63,0.04-1.27,0.08-1.89c0.01-0.26,0.03-0.52,0.04-0.78c0-0.05,0.01-0.1,0.02-0.15l0-0.18c0-0.17,0-0.35-0.01-0.48
				c-0.05,0-0.1,0-0.15,0c-0.12,0-0.26,0.01-0.42,0.01c-0.87,0-1.76,0.03-2.62,0.06c-0.4,0.01-0.8,0.03-1.2,0.04
				c-0.6,0.01-0.9-0.24-0.99-0.84c-0.16-1.05-0.1-2.08-0.02-2.87c0.04-0.44,0.38-0.75,0.84-0.79l0.21-0.02
				c0.3-0.03,0.61-0.05,0.93-0.05c0.39,0,0.79,0.02,1.19,0.03c0.63,0.02,1.27,0.04,1.9,0.02c0.33-0.01,0.67,0,1,0
				c0.67,0.01,1.3,0.02,1.92-0.09c0.15-0.03,0.28-0.03,0.41-0.03h0.06l5.93-0.02c0.05,0,0.1,0,0.15,0c0.12,0.01,0.23,0.02,0.32,0.03
				c1.07,0.08,1.18,0.44,1.25,1.52l0.02,0.29C408.53,234.37,408.56,234.87,408.57,235.37z"/>
		</g>
		<g>
			<path d="M431.85,256.68c-0.35,0.62-0.63,1.16-0.85,1.66c0.49-0.01,0.98-0.02,1.46-0.04c0.6-0.02,1.21-0.03,1.81-0.04
				c0.78-0.01,1.56-0.01,2.34-0.02l1.04,0c0.13,0,0.26,0,0.39,0c0.3-0.01,0.61-0.01,0.92,0c0.69,0.04,1.11,0.46,1.13,1.12
				c0.02,0.73,0.03,1.7,0.01,2.68c-0.02,0.72-0.4,1.08-1.13,1.08c-0.01,0-0.01,0-0.02,0c-0.89-0.01-1.78-0.02-2.67-0.03
				c-1-0.01-1.99-0.03-2.99-0.04c-0.73-0.01-1.46-0.01-2.19-0.01c-0.82,0-1.64-0.01-2.47-0.02c-0.95-0.01-1.89-0.03-2.84-0.04
				l-1.57-0.03l-0.17-0.26c-0.39-0.6-0.42-1.15-0.11-1.72c0.58-1.05,1.15-2.12,1.73-3.17c0.33-0.6,0.65-1.2,0.98-1.8
				c0.18-0.33,0.36-0.67,0.54-1c0.49-0.91,1-1.86,1.53-2.77c0.48-0.84,0.95-1.71,1.41-2.54c0.6-1.11,1.22-2.26,1.89-3.37
				c0.85-1.41,1.63-2.91,2.38-4.36l0.51-0.98c0.36-0.69,0.49-1.5,0.62-2.29c0.12-0.74-0.36-1.8-1.18-2.1
				c-0.04-0.02-0.08-0.03-0.12-0.05c-0.67-0.3-1.19-0.44-1.72-0.19c-0.88,0.41-1.37,0.92-1.58,1.63c-0.29,0.98-0.55,2.15-0.36,3.36
				c0.03,0.17-0.24,0.21-0.24,0.21l-0.52,0.09c-1.25,0.22-2.39,0.27-3.5,0.14l-0.27-0.03c0,0-0.13-0.13-0.13-0.47
				c0-0.23,0-0.46,0.01-0.69c0.01-0.97,0.01-1.97,0.24-2.98c0.31-1.4,0.93-2.68,1.83-3.82c0.56-0.71,1.3-1.22,2.25-1.57
				c0.75-0.27,1.57-0.41,2.43-0.41c0,0,0,0,0.01,0c0.7,0,1.41,0.03,2.09,0.06l0.21,0.01c1.09,0.04,2.09,0.45,3.15,1.27
				c1.7,1.32,2.23,3.2,2.53,4.87c0.07,0.39,0.03,0.79-0.01,1.09c-0.27,1.91-0.82,3.53-1.67,4.95c-0.15,0.24-0.29,0.5-0.41,0.75
				c-0.43,0.9-0.94,1.83-1.61,2.93c-0.6,0.98-1.17,2.01-1.73,3c-0.22,0.4-0.45,0.79-0.67,1.19l-0.37,0.64
				C433.4,253.93,432.62,255.31,431.85,256.68z"/>
		</g>
		<g>
			<path d="M464.16,247.82c0,0.19-0.01,0.38-0.01,0.56c0,1.49-0.23,2.96-0.46,4.37l-0.03,0.17c-0.23,1.43-0.76,2.77-1.19,3.78
				c-0.71,1.64-1.85,3.18-3.61,4.83c-1.09,1.03-2.47,1.59-4.1,1.67c-0.24,0.01-0.46,0.02-0.68,0.02c-0.72,0-1.35-0.06-1.93-0.2
				c-0.69-0.16-1.49-0.38-2.14-1.01c-0.13-0.13-0.29-0.24-0.47-0.36c-0.23-0.16-0.47-0.33-0.69-0.55c-1.32-1.39-2.26-2.84-2.89-4.41
				c-0.84-2.12-1.26-4.44-1.36-7.52c-0.04-1.19,0.07-2.45,0.31-3.75c0.25-1.34,0.62-3.1,1.24-4.84c0.45-1.29,1.16-2.45,1.84-3.57
				l0.1-0.16c0.59-0.97,1.33-1.82,2.26-2.6c1-0.84,2.16-1.36,3.56-1.59c1.49-0.25,2.98-0.05,4.43,0.57
				c1.45,0.62,2.64,1.67,3.42,3.04c0.84,1.45,1.43,3.02,1.77,4.66c0.39,1.93,0.51,3.88,0.61,5.61
				C464.17,246.96,464.16,247.4,464.16,247.82z M455.78,237.22c-0.21-0.03-0.42-0.04-0.61-0.04c-1.04,0-1.85,0.37-2.51,1.12
				c-1.06,1.22-1.85,2.58-2.33,4.05c-0.42,1.28-0.65,2.65-0.88,3.97l-0.02,0.14c-0.1,0.61-0.14,1.13-0.12,1.6
				c0.11,1.88,0.23,3.58,0.66,5.23c0.24,0.94,0.57,1.91,0.99,2.96c0.38,0.95,1.09,1.62,2.11,2.02c0.74,0.29,1.4,0.26,1.99-0.07
				c0.76-0.42,1.24-0.84,1.54-1.35c0.34-0.58,0.68-1.21,1-1.89c0.36-0.74,0.53-1.55,0.71-2.4c0.04-0.21,0.09-0.42,0.14-0.63
				c0.39-1.68,0.73-3.33,0.7-5.01c-0.02-1.32-0.04-2.68-0.32-4.05c-0.32-1.59-0.97-3.04-1.61-4.39c-0.2-0.43-0.57-0.75-1.05-1.11
				C456.08,237.3,455.92,237.24,455.78,237.22z"/>
		</g>
		<g>
			<path d="M476.92,233.63c0,0.07,0,0.14,0,0.21c0,1.56,0,2.88-0.05,4.21c-0.03,0.96-0.09,1.94-0.15,2.88
				c-0.02,0.41-0.05,0.82-0.07,1.23c0,0.08-0.01,0.15-0.02,0.23c-0.01,0.12-0.02,0.25-0.02,0.38c0,0.64-0.01,1.28-0.02,1.92
				c-0.02,2.03-0.04,4.12,0.06,6.18c0.01,0.17,0.01,0.3,0,0.43c-0.06,0.82-0.02,1.63,0.01,2.49c0.02,0.57,0.05,1.16,0.04,1.75
				c-0.01,1.19,0.01,2.4,0.03,3.58l0.01,0.7c0,0.32,0.02,0.63,0.03,0.95c0.02,0.35,0.03,0.7,0.04,1.05c0,0.22-0.04,0.42-0.07,0.6
				c-0.01,0.06-0.02,0.13-0.03,0.19l-0.05,0.32l-0.3,0.12c-0.43,0.18-0.83,0.18-1.14,0.17c-0.11,0-0.23,0-0.34,0.01
				c-0.41,0.04-0.86,0.07-1.31,0.08c-0.09,0-0.17,0.01-0.26,0.02c-0.13,0.01-0.27,0.03-0.42,0.03c-0.28,0-0.61-0.05-0.95-0.25
				l-0.19-0.11l-0.07-0.21c-0.26-0.81-0.24-1.71-0.19-2.4c0.07-0.97,0.08-1.96,0.09-2.92c0-0.45,0.01-0.89,0.02-1.34
				c0.01-0.61,0.04-1.21,0.06-1.81c0.02-0.52,0.04-1.04,0.05-1.56c0.02-0.78,0.03-1.57,0.02-2.35c-0.01-1.09-0.02-2.19-0.04-3.28
				l-0.01-0.36c-0.01-0.64-0.02-1.29-0.03-1.93c-0.02-0.99-0.04-1.99-0.05-2.98c-0.01-0.52-0.01-1.03,0-1.58
				c-0.12,0.13-0.23,0.25-0.33,0.37c-0.41,0.46-0.98,0.54-1.47,0.19c-0.04-0.03-0.1-0.07-0.17-0.14c-0.18-0.2-0.38-0.39-0.57-0.58
				c-0.42-0.42-0.86-0.85-1.21-1.39c-0.44-0.7-0.39-1.29,0.17-1.91c0.4-0.45,0.8-0.89,1.19-1.34c0.47-0.53,0.95-1.06,1.42-1.59
				c0.36-0.4,0.72-0.79,1.09-1.2l0.66-0.72l0.18-0.04c1.15-0.23,2.27-0.05,3.37,0.12l0.62,0.09l0.13,0.25
				C476.94,232.85,476.93,233.28,476.92,233.63z"/>
		</g>
		<g>
			<path d="M498.76,258.35c-0.6,1.34-1.6,2.38-2.41,3.13c-0.86,0.8-1.88,1.44-3.04,1.88c-0.65,0.25-1.25,0.38-1.86,0.42
				c-0.06,0-0.13,0-0.19,0c-0.08,0-0.16,0-0.24,0.01c-0.24,0.02-0.47,0.04-0.7,0.04c-1.98,0-3.75-0.88-5.42-2.67
				c-0.99-1.06-1.52-2.34-1.92-3.45c-0.41-1.14-0.66-2.26-0.78-3.42c-0.11-1.08-0.01-1.38,0.11-2.37c0.05-0.46,0.25-0.87,0.43-1.23
				l0.07-0.14c0.25-0.53,0.72-0.84,1.25-0.82c1.08,0.04,2.17,0.08,3.23,0.49l0.34,0.37c0.18,0.57-0.12,1.36-0.12,1.36
				c-0.39,1.35-0.63,2.84,0.1,4.51c0.43,0.99,1.17,1.72,2.25,2.24c0.35,0.17,0.79,0.19,1.32,0.06c0.63-0.15,1.24-0.42,1.81-0.8
				c0.26-0.17,0.48-0.41,0.7-0.75c0.56-0.89,0.9-1.91,1.08-3.21c0.31-2.22-0.09-4.16-1.21-5.91c-0.52-0.81-1.29-1.32-2.29-1.53
				c-1-0.21-2.04-0.11-3.1,0.29c-0.61,0.23-1.21,0.32-1.84,0.29c-0.32-0.02-0.65-0.03-0.97-0.04c-0.28-0.01-0.57-0.02-0.85-0.03
				c-0.38-0.02-0.66-0.14-0.86-0.37c-0.19-0.22-0.28-0.53-0.24-0.91l0.07-0.74c0.15-1.62,0.3-3.29,0.59-4.93l0.06-0.35
				c0.35-1.99,0.71-4.05,1.24-6.05c0.04-0.17,0.1-0.33,0.16-0.46c0.02-0.05,0.04-0.11,0.06-0.16l0.11-0.3l0.31-0.07
				c1.19-0.25,9.71-0.42,11.7-0.23c0.18,0.02,0.34,0.08,0.45,0.13c0.03,0.01,0.06,0.03,0.1,0.04l0.31,0.11l0.07,0.32
				c0.18,0.87,0.13,1.69,0.08,2.48l-0.02,0.33c-0.01,0.21-0.08,0.38-0.15,0.54c-0.02,0.05-0.05,0.11-0.07,0.17l-0.12,0.33
				l-0.35,0.05c-0.84,0.11-1.68,0.09-2.49,0.07c-0.66-0.01-1.29-0.03-1.92,0.03c-1,0.08-2.02,0.11-3,0.13
				c-0.32,0.01-0.64,0.01-0.96,0.02c0,0.01,0,0.01,0,0.01c-0.25,1.32-0.49,2.64-0.73,3.97c0.98-0.15,2-0.16,3.02-0.02
				c1.43,0.2,2.74,0.79,3.9,1.78c1.15,0.98,2.07,2.1,2.73,3.33c0.35,0.65,0.64,1.41,0.88,2.34c0.29,1.13,0.46,2.36,0.51,3.74
				C500,254.46,499.61,256.46,498.76,258.35z"/>
		</g>
	</g>
</g>
</svg>
