<?xml version="1.0" standalone="no"?>
<!DOCTYPE svg PUBLIC "-//W3C//DTD SVG 20010904//EN"
 "http://www.w3.org/TR/2001/REC-SVG-20010904/DTD/svg10.dtd">
<svg version="1.0" xmlns="http://www.w3.org/2000/svg"
 width="876.000000pt" height="876.000000pt" viewBox="0 0 876.000000 876.000000"
 preserveAspectRatio="xMidYMid meet">
<metadata>
Created by potrace 1.14, written by Peter Selinger 2001-2017
</metadata>
<g transform="translate(0.000000,876.000000) scale(0.100000,-0.100000)"
fill="#000000" stroke="none">
<path d="M2630 8754 c-8 -1 -49 -8 -90 -14 -41 -6 -111 -21 -155 -32 -44 -11
-84 -21 -90 -23 -60 -14 -215 -97 -298 -157 -82 -62 -268 -241 -342 -331 -79
-97 -207 -288 -257 -387 -13 -25 -25 -47 -28 -50 -22 -22 -242 -513 -241 -537
0 -2 -12 -35 -26 -75 -14 -40 -26 -80 -28 -88 -2 -8 -14 -53 -26 -100 -12 -47
-23 -94 -24 -105 -6 -38 -14 -75 -18 -82 -3 -5 -8 -35 -12 -68 -3 -32 -8 -62
-10 -65 -3 -5 -15 -88 -20 -140 -1 -14 -5 -47 -9 -75 -4 -27 -8 -68 -11 -90
-2 -22 -6 -60 -9 -85 -9 -67 -15 -119 -21 -175 -3 -27 -7 -72 -10 -100 -3 -27
-8 -77 -11 -110 -3 -33 -7 -78 -9 -100 -20 -173 -29 -1150 -12 -1360 12 -149
23 -252 32 -295 3 -14 7 -43 10 -65 2 -22 7 -51 10 -65 2 -14 9 -50 15 -80 15
-83 19 -100 24 -118 3 -9 8 -33 11 -52 3 -19 8 -42 10 -50 2 -8 6 -26 9 -40 3
-14 17 -72 31 -130 15 -58 28 -109 29 -115 1 -5 11 -37 21 -70 10 -33 19 -62
20 -65 16 -67 83 -235 142 -360 56 -117 83 -165 150 -275 7 -11 16 -28 19 -38
3 -9 10 -17 15 -17 5 0 9 -7 9 -15 0 -8 4 -15 8 -15 4 0 16 -15 27 -32 10 -18
24 -38 29 -44 6 -6 26 -29 44 -52 124 -152 234 -250 332 -294 106 -48 134 -59
227 -92 57 -19 113 -37 125 -39 13 -2 30 -7 38 -10 8 -4 29 -8 45 -11 17 -2
30 -5 30 -6 0 -16 423 -36 450 -21 5 2 22 6 38 8 l29 3 -28 -37 c-15 -21 -61
-78 -102 -128 -40 -49 -85 -105 -100 -124 -15 -18 -35 -43 -45 -55 -10 -11
-31 -36 -45 -55 -15 -18 -35 -43 -46 -55 -10 -11 -35 -41 -55 -65 -20 -25 -47
-57 -61 -71 -14 -14 -38 -42 -55 -62 -91 -108 -200 -224 -375 -398 -200 -201
-298 -287 -455 -404 -49 -37 -95 -70 -100 -75 -6 -4 -31 -19 -56 -34 -80 -47
-121 -114 -120 -198 0 -58 19 -104 61 -152 l32 -37 115 0 114 0 82 52 c45 29
84 55 87 58 3 3 34 27 70 54 70 54 228 186 299 251 113 102 416 412 515 526
36 41 157 179 171 195 9 10 25 29 104 124 11 14 26 32 33 40 7 8 26 30 41 50
56 69 92 113 102 124 6 6 60 74 120 151 60 77 120 151 132 165 13 14 23 28 23
32 0 3 7 13 15 21 8 9 119 154 246 324 127 169 236 315 243 323 6 8 34 47 61
85 27 39 52 72 55 75 3 3 43 57 89 121 l83 117 76 12 c78 12 99 16 162 24 19
3 46 8 60 11 13 2 42 7 65 10 22 3 69 10 105 15 36 5 82 12 103 15 20 3 52 7
70 10 17 3 48 7 67 10 19 2 51 7 70 9 19 3 57 8 84 12 27 3 56 7 65 9 9 1 41
6 71 10 30 3 66 8 80 10 14 2 45 6 70 10 25 3 61 8 81 11 20 3 53 7 75 10 21
2 55 6 74 9 19 2 57 6 84 9 27 3 61 8 77 11 34 8 34 10 -12 -130 -18 -55 -34
-105 -35 -112 -2 -13 -32 -109 -41 -133 -3 -8 -7 -19 -9 -25 -1 -5 -7 -25 -13
-42 -5 -18 -8 -33 -6 -33 3 0 -4 -20 -15 -45 -11 -25 -17 -45 -15 -45 2 0 -3
-17 -12 -37 -8 -21 -15 -39 -14 -41 1 -1 -5 -28 -15 -60 -10 -31 -19 -61 -20
-67 -1 -5 -14 -50 -29 -100 -38 -130 -77 -268 -80 -285 -2 -8 -10 -34 -19 -57
-8 -24 -13 -43 -11 -43 3 0 0 -12 -6 -27 -6 -16 -13 -37 -15 -48 -9 -36 -12
-50 -14 -55 -1 -3 -3 -9 -5 -15 -1 -5 -3 -12 -4 -15 -2 -3 -4 -12 -6 -20 -2
-8 -13 -51 -25 -95 -12 -44 -24 -91 -27 -105 -2 -14 -7 -32 -10 -40 -4 -8 -6
-18 -5 -22 1 -4 -3 -20 -9 -35 -6 -15 -13 -37 -15 -48 -2 -11 -6 -31 -10 -45
-14 -64 -15 -85 -4 -130 30 -123 167 -195 288 -149 41 15 122 81 122 100 0 4
5 20 12 36 6 15 11 31 10 35 -1 4 2 18 7 31 5 13 12 39 15 58 3 19 19 84 36
144 17 61 41 151 55 200 13 50 36 131 50 180 34 120 34 122 39 142 3 10 17 59
31 108 15 50 28 97 30 105 2 8 27 92 56 185 28 94 53 177 54 185 2 8 4 16 5
18 2 1 3 5 4 10 1 4 15 47 30 96 16 49 29 94 31 100 1 6 7 24 13 39 7 16 12
34 12 40 1 7 27 88 58 181 38 113 62 170 72 171 8 2 47 6 85 9 39 4 90 10 115
12 25 3 65 7 90 9 199 15 259 29 307 70 50 43 76 95 79 160 3 86 -41 162 -118
201 -58 29 -85 30 -278 10 -89 -9 -120 -10 -121 -3 -1 10 61 180 123 337 28
69 51 130 53 135 1 6 6 19 10 30 5 11 17 43 28 70 10 28 24 61 30 75 5 14 11
30 13 35 3 13 147 374 231 580 36 88 66 165 68 170 2 11 11 34 57 144 18 42
33 78 34 81 2 10 16 45 30 75 7 17 55 131 105 255 50 124 100 244 110 267 11
23 19 48 19 55 0 8 4 18 8 24 5 5 23 45 41 89 19 44 38 91 44 105 6 14 11 27
12 30 1 3 6 16 12 30 6 14 56 135 112 270 56 135 108 259 116 275 7 17 34 82
60 145 45 110 75 181 95 225 80 173 151 362 151 403 2 89 -52 173 -135 207
-58 25 -196 12 -196 -17 0 -5 -5 -8 -11 -8 -20 0 -584 -576 -929 -950 -58 -63
-124 -134 -147 -158 -24 -25 -43 -46 -43 -48 0 -1 -15 -18 -32 -36 -18 -19
-64 -70 -103 -112 -38 -43 -81 -91 -95 -106 -14 -15 -52 -58 -85 -96 -33 -37
-72 -81 -87 -97 -15 -16 -51 -58 -80 -93 -29 -35 -56 -64 -60 -64 -5 0 -8 -4
-8 -9 0 -5 -12 -22 -27 -38 -16 -15 -44 -48 -63 -71 -19 -24 -46 -55 -60 -71
-36 -40 -64 -72 -169 -201 -52 -63 -102 -122 -110 -131 -9 -9 -29 -33 -46 -55
-16 -21 -73 -90 -125 -154 -52 -64 -104 -129 -115 -144 -11 -15 -28 -37 -39
-49 -10 -12 -30 -38 -44 -57 -15 -19 -38 -49 -52 -66 -14 -17 -35 -44 -47 -60
-12 -16 -44 -57 -70 -91 -26 -34 -91 -119 -143 -190 -52 -70 -97 -130 -100
-133 -3 -3 -21 -27 -40 -55 -19 -27 -38 -54 -43 -60 -5 -5 -85 -118 -178 -250
-223 -316 -201 -290 -194 -230 3 28 7 61 10 75 3 14 8 48 10 75 3 28 7 64 9
80 17 139 24 216 31 335 4 52 8 120 10 150 14 204 22 534 13 591 -12 80 -70
144 -151 166 -24 7 -192 6 -327 0 -47 -3 -123 -6 -170 -7 -178 -6 -280 -53
-332 -155 -12 -22 -20 -40 -19 -40 1 0 -2 -13 -8 -28 -6 -16 -13 -49 -16 -73
-9 -79 -14 -128 -20 -194 -6 -70 -13 -144 -20 -200 -2 -19 -7 -66 -10 -105 -3
-38 -8 -92 -11 -120 -3 -27 -7 -70 -9 -95 -2 -25 -7 -67 -10 -95 -3 -27 -6
-76 -8 -107 -1 -32 -4 -58 -7 -58 -3 0 -5 -17 -6 -38 -1 -38 -6 -89 -30 -290
-10 -88 -18 -131 -40 -224 -2 -10 -6 -27 -9 -38 -21 -99 -125 -314 -152 -315
-5 -1 -30 -5 -58 -10 -27 -4 -59 -9 -70 -10 -11 -1 -29 -5 -40 -8 -11 -4 -38
-9 -60 -12 -22 -4 -47 -8 -55 -10 -8 -2 -28 -7 -45 -10 -16 -2 -41 -7 -55 -10
-14 -3 -38 -8 -53 -10 -16 -3 -32 -6 -35 -7 -18 -5 -75 37 -131 98 -58 63
-131 193 -166 294 -1 3 -7 19 -14 35 -87 214 -121 342 -126 465 -5 110 -10
148 -36 251 -14 52 -21 123 -24 235 -7 245 -18 473 -31 654 -16 224 -10 632
12 810 4 25 7 56 9 70 4 37 17 122 21 145 2 10 6 37 9 60 4 22 15 80 25 128
11 49 19 92 19 95 -1 4 0 9 1 12 3 8 11 44 14 65 2 11 9 40 16 65 7 25 14 56
17 70 7 41 62 259 84 334 12 38 22 76 24 85 2 9 17 57 35 106 17 50 32 96 32
103 1 6 5 12 10 12 4 0 8 7 8 15 0 9 8 30 17 48 9 18 18 34 18 37 6 24 42 85
63 108 6 7 12 17 12 22 0 15 153 164 185 180 17 8 32 18 35 21 3 3 37 19 75
34 149 60 310 16 386 -105 35 -57 71 -182 84 -293 2 -23 6 -53 9 -67 3 -14 8
-51 11 -83 3 -32 8 -79 11 -105 8 -66 12 -98 19 -172 3 -35 7 -76 10 -90 2
-14 7 -47 10 -75 5 -41 15 -111 20 -135 8 -41 82 -119 122 -128 41 -9 363 -2
563 13 112 8 175 33 222 87 24 28 52 108 52 148 0 19 -15 187 -19 220 -7 56
-17 137 -20 165 -2 17 -6 53 -9 80 -3 28 -8 68 -11 90 -2 22 -7 63 -11 90 -3
28 -7 64 -9 80 -2 17 -6 41 -10 55 -8 38 -17 83 -20 100 -3 23 -55 191 -70
225 -7 17 -25 59 -40 95 -62 146 -183 358 -251 439 -51 61 -131 135 -184 171
-28 19 -57 40 -63 45 -19 17 -187 100 -247 123 -65 24 -151 49 -200 57 -19 4
-48 9 -65 12 -32 5 -320 12 -345 7z m4385 -2222 c-5 -4 -34 -68 -64 -142 -30
-74 -58 -139 -63 -144 -4 -6 -8 -16 -8 -23 0 -12 -50 -129 -70 -165 -6 -10
-10 -22 -10 -28 0 -5 -11 -34 -25 -64 -14 -30 -25 -59 -25 -64 0 -5 -6 -22
-14 -38 -8 -16 -47 -108 -86 -204 -39 -96 -75 -184 -80 -195 -5 -11 -86 -213
-180 -450 -94 -236 -175 -438 -180 -447 -6 -10 -10 -22 -10 -27 0 -5 -8 -26
-17 -47 -9 -22 -17 -41 -18 -44 -2 -7 -13 -33 -52 -130 -19 -47 -35 -89 -37
-95 -4 -21 -59 -160 -67 -170 -4 -5 -10 -27 -14 -47 -4 -21 -11 -38 -16 -38
-5 0 -9 -7 -9 -16 0 -9 -6 -30 -14 -47 -13 -30 -74 -189 -80 -212 -2 -5 -8
-23 -14 -38 -7 -15 -15 -39 -18 -53 -3 -13 -9 -26 -13 -29 -11 -6 -112 -21
-216 -30 -16 -2 -30 -4 -30 -5 0 -1 -16 -3 -35 -5 -32 -2 -105 -11 -170 -20
-14 -2 -50 -6 -80 -10 -30 -4 -68 -9 -85 -12 -16 -2 -46 -6 -65 -8 -19 -2 -55
-6 -80 -10 -25 -4 -56 -9 -70 -10 -30 -3 -115 -15 -150 -20 -14 -2 -47 -7 -75
-11 -27 -3 -57 -8 -67 -9 -9 -2 -38 -6 -65 -10 -26 -4 -59 -9 -73 -11 -42 -8
-100 -13 -100 -8 0 10 95 144 102 144 4 0 8 7 8 15 0 8 5 15 10 15 6 0 10 5
10 10 0 6 5 16 11 23 9 11 108 148 197 275 110 157 316 437 324 440 4 2 8 10
8 17 0 7 7 16 16 19 9 4 15 9 12 12 -3 3 3 15 13 27 10 12 61 76 111 142 51
66 112 145 135 175 23 30 53 67 66 82 13 15 32 39 43 54 10 14 24 31 29 38 6
6 26 31 45 56 19 25 39 50 45 55 6 6 29 33 50 60 22 28 44 55 50 61 5 6 24 29
40 50 28 35 76 93 100 120 6 6 24 28 40 49 17 20 35 42 40 49 6 6 26 29 45 52
52 60 133 154 150 175 8 9 22 26 30 36 9 10 36 41 60 68 52 59 150 170 177
202 21 24 138 154 227 253 33 36 103 112 156 170 54 58 116 126 140 153 24 26
48 47 54 47 7 0 7 -3 1 -8z"/>
</g>
</svg>
